<svg xmlns="http://www.w3.org/2000/svg" width="86.073" height="84.386" viewBox="0 0 86.073 84.386"><defs><style>.a{fill:#0ce7a5;}.b{fill:none;opacity:0.41;}</style></defs><g transform="translate(-1466.927 -2938.485)"><path class="a" d="M5.151,59.757c9.1-1.4,9.78-2.054,9.78-2.054-2.739-12.993,6.96-24.365,16.424-32.178,12.607-10.394,27.5-8.331,42.42-24.133C77.251-2.3,76.284,43.99,57.6,61.056c-13.66,12.466-29.556,10.71-33.964,8.674a19.551,19.551,0,0,1-6.795-5.952C9.558,66.06,5.958,66.271,5.958,66.271,3.395,66.587,2.1,60.231,5.151,59.757Zm16.118,1.3c13.643-4.091,25.512-14.222,33.2-22.158a.716.716,0,0,0-.966-1.053A106.774,106.774,0,0,1,19.566,56.79,6.547,6.547,0,0,0,21.269,61.056Z" transform="translate(1479.648 2936.573) rotate(13)"/><rect class="b" width="85" height="61" transform="translate(1468 2954)"/></g></svg>