<svg xmlns="http://www.w3.org/2000/svg" width="24.267" height="24.268" viewBox="0 0 24.267 24.268"><path d="M20.633,5.776A12.029,12.029,0,0,0,1.706,20.288L0,26.518l6.376-1.674a11.989,11.989,0,0,0,5.747,1.463h.005A12.141,12.141,0,0,0,24.267,14.281a12.073,12.073,0,0,0-3.635-8.5Zm-8.5,18.5a9.977,9.977,0,0,1-5.092-1.392l-.363-.217-3.781.991L3.9,19.974l-.238-.379a10.015,10.015,0,1,1,18.574-5.314,10.107,10.107,0,0,1-10.108,10Zm5.482-7.486c-.3-.152-1.777-.878-2.053-.975s-.477-.152-.677.152-.775.975-.953,1.181-.352.228-.65.076a8.179,8.179,0,0,1-4.09-3.575c-.309-.531.309-.493.883-1.641a.557.557,0,0,0-.027-.525c-.076-.152-.677-1.63-.926-2.232-.244-.585-.493-.5-.677-.515s-.374-.011-.574-.011a1.113,1.113,0,0,0-.8.374A3.376,3.376,0,0,0,6.013,11.61,5.887,5.887,0,0,0,7.237,14.72a13.427,13.427,0,0,0,5.135,4.539c1.907.823,2.654.894,3.608.753a3.078,3.078,0,0,0,2.026-1.43,2.513,2.513,0,0,0,.173-1.43C18.109,17.016,17.908,16.941,17.61,16.794Z" transform="translate(0 -2.25)"/></svg>