<svg xmlns="http://www.w3.org/2000/svg" xmlns:xlink="http://www.w3.org/1999/xlink" width="50" height="36" viewBox="0 0 50 36"><defs><style>.a{fill:#682525;opacity:0.34;}.b{clip-path:url(#a);}.c{fill:#0ce7a5;}</style><clipPath id="a"><rect class="a" width="50" height="36" transform="translate(2099 4104)"/></clipPath></defs><g class="b" transform="translate(-2099 -4104)"><path class="c" d="M1.052,34.706c5.389-.832,5.795-1.217,5.795-1.217-1.623-7.7,4.124-14.437,9.732-19.066C24.048,8.264,32.87,9.487,41.713.123c2.06-2.185,1.487,25.241-9.582,35.353-8.094,7.387-17.513,6.346-20.124,5.139A11.584,11.584,0,0,1,7.98,37.089a30.531,30.531,0,0,1-6.45,1.477C.011,38.753-.759,34.987,1.052,34.706Zm9.55.77c8.084-2.424,15.116-8.427,19.673-13.129a.424.424,0,0,0-.572-.624A63.266,63.266,0,0,1,9.593,32.948,3.879,3.879,0,0,0,10.6,35.476Z" transform="translate(2107.329 4095) rotate(13)"/></g></svg>