<svg xmlns="http://www.w3.org/2000/svg" width="24.985" height="25.031" viewBox="0 0 24.985 25.031"><path d="M26.15,20.241v3.467a2.311,2.311,0,0,1-2.519,2.311,22.869,22.869,0,0,1-9.973-3.548,22.534,22.534,0,0,1-6.934-6.934A22.869,22.869,0,0,1,3.177,5.519,2.311,2.311,0,0,1,5.477,3H8.944a2.311,2.311,0,0,1,2.311,1.988,14.838,14.838,0,0,0,.809,3.247,2.311,2.311,0,0,1-.52,2.438l-1.468,1.468a18.49,18.49,0,0,0,6.934,6.934l1.468-1.468a2.311,2.311,0,0,1,2.438-.52,14.838,14.838,0,0,0,3.247.809,2.311,2.311,0,0,1,1.988,2.346Z" transform="translate(-2.167 -2)" fill="none" stroke="#000" stroke-linecap="round" stroke-linejoin="round" stroke-width="2"/></svg>