<svg xmlns="http://www.w3.org/2000/svg" width="50" height="50" viewBox="0 0 50 50"><g transform="translate(-280 -1212)"><path d="M150,258a2,2,0,0,1-2-2V244.3l-8.743,8.743a2,2,0,0,1-2.829,0l-3.681-3.681a2,2,0,0,1,0-2.829l8.53-8.53H129a2,2,0,0,1-2-2v-5a2,2,0,0,1,2-2h12.49l-8.743-8.743a2,2,0,0,1,0-2.829l3.681-3.681a2,2,0,0,1,2.829,0L148,222.49V210a2,2,0,0,1,2-2h5a2,2,0,0,1,2,2v12.277l8.53-8.53a2,2,0,0,1,2.829,0l3.681,3.681a2,2,0,0,1,0,2.829L163.3,229H175a2,2,0,0,1,2,2v5a2,2,0,0,1-2,2h-11.49l8.53,8.53a2,2,0,0,1,0,2.829l-3.681,3.681a2,2,0,0,1-2.829,0l-8.53-8.53V256a2,2,0,0,1-2,2Z" transform="translate(153 1004)" fill="#4169e1"/></g></svg>