<svg xmlns="http://www.w3.org/2000/svg" width="55" height="47.243" viewBox="0 0 55 47.243"><defs><style>.a{fill:#fe247b;}</style></defs><path class="a" d="M35.92,3.755a3,3,0,0,1,4.714,2.736l-.763,8.033a3,3,0,0,0,1.745,3.015l7.375,3.352a3,3,0,0,1,0,5.462L41.616,29.7a3,3,0,0,0-1.745,3.015l.763,8.033a3,3,0,0,1-4.714,2.736l-6.692-4.714a3,3,0,0,0-3.455,0L19.08,43.489a3,3,0,0,1-4.714-2.736l.763-8.033A3,3,0,0,0,13.384,29.7L6.009,26.353a3,3,0,0,1,0-5.462l7.375-3.352a3,3,0,0,0,1.745-3.015l-.763-8.033A3,3,0,0,1,19.08,3.755l6.692,4.714a3,3,0,0,0,3.455,0Z"/></svg>