<svg xmlns="http://www.w3.org/2000/svg" enable-background="new 0 0 495.1 503.4" viewBox="0 0 495.1 503.4"><path d="M141.1,266.6c-0.2,21.1-19.2,33.6-37.7,26.1c-5.7-2.3-10.9-5.8-15.1-10.3c-10.4-10.7-10.1-27.8,0.6-38.2
			c7.1-6.9,17.4-9.3,26.8-6.4c2.4,0.6,4.8,1.4,7.1,2.4C134.4,246.1,140.4,255.4,141.1,266.6z"/><path fill="#ffd574" d="M107.9 288.5c-12.7.3-24.2-10.4-24.5-23.6-.6-13.6 10-25.1 23.6-25.7s25.1 10 25.7 23.6c.6 13.6-10 25.1-23.6 25.7C108.6 288.5 108.2 288.5 107.9 288.5L107.9 288.5zM133.5 273.2c1.3.3 1.9 1.1 2.7 1.4 1.5.5 1.3 1.5.8 2.6-1.7 3.9-1.2 3.4-4.6 1.1-.6-.3-.9-1-.6-1.6 0-.1.1-.2.2-.3C132.5 275.5 133 274.3 133.5 273.2zM137.9 272.8c-3.8-1.8-3.8-1.8-2.9-6.5C139.1 267.7 139.4 269.5 137.9 272.8zM128.3 282.2c.4-1 1.1-1.8 1.9-2.5.9.4 1.8.9 2.5 1.6.9.5 1.2 1.7.6 2.6-.3.4-.6.7-1.1.8-.5.2-.9-.1-1.2-.4C130.1 283.7 129.2 282.9 128.3 282.2zM138.2 264.8c-2.4-.6-3.6-2-3.4-4.4.1-.8-.5-1.6-.2-2.4C137.3 258.7 138 260 138.2 264.8zM124.2 285.7c.6-.5 1-.8 1.3-1.1.8-.9 1.6-.8 2.3 0 .3.3.7.6 1 .9s1.5.7.8 1.7c-.5 1-1.7 1.3-2.7.8-.1-.1-.2-.1-.3-.2C125.9 287.2 125.2 286.5 124.2 285.7zM119.3 288.7c3.2-2.1 3.2-2.1 5.9 1.1C121.9 291.9 122.2 291.4 119.3 288.7zM113.8 290.5c2.1-1.2 3.8-.9 5.1 1.3C116.1 293 115.5 292.8 113.8 290.5zM132.5 251c.6.8 1.2 1.6 1.8 2.4.3.3.5.8.5 1.3-.8.4-1.3 0-1.7-.7-.5-1-.9-2-1.3-3 .1-.2.4-.3.6-.1C132.5 250.9 132.5 251 132.5 251zM107.7 291.5c2.4-.7 2.4-.7 3.4.7C110 292.2 108.8 292 107.7 291.5zM130.7 249.4c-.3-.3-.9-.6-.4-.9s.9.4 1.1.9C131.2 249.7 131 249.7 130.7 249.4z"/><path fill="#ffd574" d="M132.5,251h-0.7c-0.3,0-0.4-0.3-0.4-0.5c-0.2-0.2-0.2-0.5,0-0.7c0,0,0.1-0.1,0.1-0.1
			C132,250,132.4,250.4,132.5,251z"/><path fill="#ffd574" d="M131.5 249.8c0 .2-.1.5-.1.7-.3-.3-.6-.7-.7-1.2h.7C131.5 249.5 131.5 249.6 131.5 249.8zM107.4 259c-1.2-1.4-2.1-2.9-2.6-4.7-.3-1 .1-1.6 1.2-1.7.7 0 1.3 0 2 0 3.2.3 3.4.8 1.6 3.4C109 257 108.3 257.8 107.4 259zM107.1 263.5c.4.4.6.5.6.7.5 1.1 1.5 2.3.4 3.3s-2.6.5-4-.3C105.2 265.9 106.1 264.8 107.1 263.5z"/><path d="M236.4,36.5c-0.2,21.1-19.2,33.6-37.7,26.1c-5.7-2.3-10.9-5.8-15.1-10.3c-10.3-10.7-10-27.8,0.7-38.2
			c7.1-6.8,17.3-9.2,26.7-6.3c2.4,0.6,4.8,1.4,7.1,2.4C229.7,16,235.7,25.3,236.4,36.5z"/><path fill="#ffd574" d="M203.2 58.4C190.5 58.6 179 48 178.7 34.7c-.6-13.6 10-25.1 23.6-25.6s25.1 10 25.6 23.6-10 25.1-23.6 25.6C203.9 58.3 203.6 58.4 203.2 58.4zM228.8 43c1.3.3 1.9 1.1 2.7 1.4 1.5.5 1.3 1.5.8 2.6-1.7 3.9-1.2 3.4-4.6 1.1-.6-.3-.9-1-.6-1.6 0-.1.1-.2.2-.3C227.8 45.3 228.3 44.2 228.8 43zM233.2 42.6c-3.8-1.8-3.8-1.8-2.9-6.5C234.4 37.5 234.7 39.3 233.2 42.6zM223.6 52c.4-1 1.1-1.8 1.9-2.5.9.4 1.8.9 2.5 1.6.9.5 1.2 1.7.6 2.6-.3.4-.6.7-1.1.8-.5.2-.9-.1-1.2-.4C225.4 53.5 224.5 52.7 223.6 52zM233.5 34.6c-2.4-.6-3.6-2-3.4-4.4.1-.8-.5-1.6-.2-2.4C232.6 28.5 233.4 29.9 233.5 34.6zM219.5 55.5c.4-.4.9-.7 1.3-1.1.8-.9 1.6-.8 2.3 0 .3.3.7.6 1 .9s1.5.7.8 1.7c-.5 1-1.7 1.3-2.7.8-.1-.1-.2-.1-.3-.2C221.2 57 220.5 56.3 219.5 55.5zM214.6 58.6c3.2-2.1 3.2-2.1 5.9 1.1C217.2 61.7 217.6 61.3 214.6 58.6zM209.1 60.3c2.1-1.2 3.8-.9 5.1 1.3C211.4 62.8 210.8 62.7 209.1 60.3zM227.9 20.9c.6.8 1.2 1.6 1.8 2.4.3.4.5.8.5 1.3-.8.4-1.4 0-1.7-.7-.5-1-.9-2-1.3-3 .1-.2.4-.3.6-.1C227.8 20.8 227.8 20.8 227.9 20.9zM203 61.3c2.4-.7 2.4-.7 3.4.7C205.3 62 204.1 61.8 203 61.3zM226 19.2c-.3-.3-.9-.6-.4-.9s.9.4 1.1.9c-.1.2-.4.3-.6.2C226.1 19.3 226 19.3 226 19.2z"/><path fill="#ffd574" d="M227.9,20.9h-0.7c-0.3,0-0.4-0.3-0.4-0.5c-0.2-0.2-0.2-0.5,0-0.7c0,0,0.1-0.1,0.1-0.1
			C227.3,19.9,227.7,20.3,227.9,20.9z"/><path fill="#ffd574" d="M226.8 19.6c0 .2-.1.5-.1.7-.4-.3-.6-.7-.7-1.2h.7C226.8 19.3 226.8 19.5 226.8 19.6zM202.8 28.9c-1.2-1.4-2.1-2.9-2.6-4.7-.3-1 .1-1.6 1.2-1.7.6 0 1.3 0 1.9 0 3.2.3 3.4.8 1.6 3.4C204.3 26.8 203.6 27.7 202.8 28.9zM202.4 33.3c.4.4.6.5.6.7.5 1.1 1.5 2.3.4 3.3s-2.6.5-4-.3C200.5 35.7 201.4 34.6 202.4 33.3z"/><path d="M455.5,79.6c-0.2,21.1-19.2,33.6-37.7,26.1c-5.7-2.3-10.9-5.8-15.1-10.3c-10.3-10.7-10-27.8,0.7-38.2
			c7.1-6.8,17.3-9.3,26.7-6.3c2.4,0.6,4.8,1.4,7.1,2.4C448.8,59.1,454.8,68.4,455.5,79.6z"/><path fill="#ffd574" d="M422.3 101.5c-12.7.3-24.2-10.4-24.5-23.6-.6-13.6 10-25.1 23.6-25.7 13.6-.6 25.1 10 25.7 23.6.6 13.6-10 25.1-23.6 25.7C423 101.5 422.7 101.5 422.3 101.5zM447.9 86.1c1.3.3 1.9 1.1 2.7 1.4 1.5.6 1.3 1.5.8 2.6-1.7 3.9-1.2 3.4-4.6 1.1-.7-.5-.9-1-.5-1.8C446.9 88.4 447.4 87.3 447.9 86.1zM452.3 85.8c-3.8-1.8-3.8-1.8-2.9-6.5C453.5 80.7 453.8 82.4 452.3 85.8zM442.7 95.1c.4-1 1.1-1.8 1.9-2.5.9.4 1.8.9 2.5 1.6.9.5 1.2 1.7.6 2.6-.3.4-.7.7-1.1.9-.5.2-.9-.1-1.2-.4C444.5 96.6 443.6 95.9 442.7 95.1zM452.6 77.8c-2.4-.7-3.6-2-3.4-4.4.1-.8-.5-1.6-.2-2.4C451.7 71.6 452.4 73 452.6 77.8zM438.6 98.7c.6-.5 1-.8 1.3-1.1.8-.9 1.5-.7 2.3.1.3.3.7.6 1 .9s1.5.7.8 1.7c-.5 1-1.7 1.3-2.7.8-.1-.1-.2-.1-.3-.2C440.3 100.2 439.6 99.5 438.6 98.7zM433.7 101.7c3.2-2.1 3.2-2.1 5.9 1.1C436.3 104.8 436.6 104.4 433.7 101.7zM428.2 103.5c2.1-1.2 3.8-.9 5.1 1.3C430.5 106 429.9 105.8 428.2 103.5zM447 64c.6.8 1.2 1.6 1.8 2.4.3.4.5.8.5 1.3-.8.4-1.3 0-1.7-.7-.5-1-.9-2-1.3-3 .1-.2.4-.3.6-.1C446.9 63.9 447 64 447 64zM422.1 104.5c2.4-.7 2.4-.7 3.5.7C424.4 105.2 423.2 104.9 422.1 104.5zM445.1 62.4c-.3-.3-.9-.6-.4-.9s.9.4 1.1.9c-.1.2-.4.3-.6.2C445.2 62.5 445.2 62.4 445.1 62.4z"/><path fill="#ffd574" d="M447,64h-0.7c-0.3,0-0.4-0.3-0.4-0.5c-0.2-0.2-0.2-0.5,0-0.7c0,0,0.1-0.1,0.1-0.1C446.4,63,446.8,63.4,447,64
			z"/><path fill="#ffd574" d="M445.9 62.8c0 .3 0 .5-.1.7-.3-.3-.6-.7-.7-1.2h.7C445.9 62.5 445.9 62.6 445.9 62.8zM421.9 72c-1.2-1.3-2.1-2.9-2.6-4.7-.3-1 .1-1.7 1.2-1.7.7 0 1.3 0 2 .1 3.2.3 3.4.8 1.5 3.4C423.4 70 422.7 70.8 421.9 72zM421.5 76.5c.4.4.6.5.6.7.5 1.1 1.5 2.3.4 3.3s-2.5.5-4-.3C419.6 78.9 420.5 77.7 421.5 76.5z"/><path d="M439.6,354.5c-0.2,21.1-19.2,33.6-37.7,26.1c-5.7-2.3-10.9-5.8-15.1-10.3c-10.3-10.8-10-27.8,0.8-38.2
			c7.1-6.8,17.3-9.2,26.7-6.3c2.4,0.6,4.8,1.4,7.1,2.4C432.9,334,438.9,343.3,439.6,354.5z"/><path fill="#ffd574" d="M406.3 376.4c-12.7.3-24.2-10.4-24.5-23.6-.6-13.6 10-25.1 23.6-25.7 13.6-.6 25.1 10 25.7 23.6.6 13.6-10 25.1-23.6 25.7C407.1 376.4 406.7 376.4 406.3 376.4zM432 361c1.3.3 1.9 1.1 2.7 1.4 1.5.6 1.3 1.5.8 2.6-1.7 3.9-1.2 3.5-4.6 1.1-.6-.3-.9-1-.6-1.6 0-.1.1-.2.2-.3C431 363.3 431.4 362.2 432 361zM436.4 360.6c-3.8-1.8-3.8-1.8-2.9-6.5C437.6 355.6 437.8 357.3 436.4 360.6zM426.7 370c.4-1 1.1-1.8 1.9-2.5.9.4 1.8.9 2.5 1.6.9.5 1.2 1.7.6 2.6-.3.4-.6.7-1.1.8-.5.2-.9-.1-1.2-.4C428.5 371.5 427.6 370.7 426.7 370zM436.6 352.6c-2.4-.6-3.6-2-3.4-4.4.1-.8-.5-1.6-.2-2.4C435.7 346.5 436.5 347.9 436.6 352.6zM422.7 373.5c.6-.5 1-.8 1.3-1.1.8-.9 1.5-.8 2.3 0 .3.3.7.6 1 .9s1.5.7.8 1.7c-.5 1-1.7 1.3-2.7.8-.1-.1-.2-.1-.3-.2C424.4 375 423.6 374.4 422.7 373.5zM417.7 376.6c3.2-2.1 3.2-2.1 5.9 1.1C420.3 379.7 420.7 379.3 417.7 376.6zM412.3 378.3c2.1-1.2 3.8-.9 5.1 1.3C414.5 380.8 414 380.7 412.3 378.3zM431 338.9c.6.8 1.2 1.6 1.8 2.4.3.4.5.8.5 1.3-.8.4-1.3 0-1.7-.7-.5-1-.9-2-1.3-3 .1-.2.4-.3.6-.1C430.9 338.8 431 338.8 431 338.9zM406.2 379.3c2.4-.7 2.4-.7 3.5.7C408.4 380 407.3 379.8 406.2 379.3zM429.2 337.2c-.3-.3-.9-.6-.4-.9s.9.4 1.1.9c-.1.2-.4.3-.6.2C429.3 337.3 429.2 337.3 429.2 337.2z"/><path fill="#ffd574" d="M431,338.9h-0.7c-0.3,0-0.4-0.3-0.4-0.5c-0.2-0.2-0.2-0.5,0-0.7c0,0,0.1-0.1,0.1-0.1
			C430.4,337.9,430.8,338.3,431,338.9z"/><path fill="#ffd574" d="M430 337.6c0 .2 0 .5-.1.7-.3-.3-.6-.7-.7-1.2h.7C430 337.3 430 337.5 430 337.6zM405.9 346.9c-1.2-1.3-2.1-2.9-2.6-4.7-.3-1 .1-1.6 1.2-1.7.6 0 1.3 0 2 0 3.2.3 3.4.8 1.5 3.4C407.4 344.8 406.7 345.7 405.9 346.9zM405.6 351.3c.4.4.6.5.6.7.5 1.1 1.5 2.3.4 3.3s-2.5.5-4-.3C403.6 353.7 404.5 352.6 405.6 351.3z"/><path fill="#e1f0ff" d="M338,437.2c1.3,0.9,2.8,1.4,4.4,1.2c7.3,0,14.7,0.7,22,0.7c3.3,0,6.7,0.5,10,0.4c9.6-0.5,19.2-0.7,28.7-3
			c6.9-1.8,14.1-2.5,21.3-1.9c5.5,0.5,10.8,2.2,15.5,4.9c3.5,2,6.7,4.3,8.9,7.8c1.7,2.7,2.6,5.8,2.6,9c0,1.8,0,3.5,0,5.3
			c0.1,10-4.6,17.3-13,22.5c-2,1.3-4.1,2.6-6.1,3.9c-2.4,1.5-5,2.5-7.7,3c-2,0.5-3.9,1.3-5.8,2c-8.7,3-17.7,4.8-26.7,6.5
			c-5.6,1-11.3,1.8-17,2.6c-2.8,0.4-5.7,0.4-8.6,0.7c-6.6,0.7-13.2,0.8-19.8,0.4c-4.5-0.3-9.1-0.3-13.6-0.8
			c-5.3-0.5-10.5-1.2-15.7-1.9c-6.4-0.9-12.8-1.9-19.1-3.3c-9.5-2-18.9-4.6-28.1-7.8c-7.3-2.6-14.5-5.4-21-9.6
			c-4.3-2.7-8.5-5.6-11.4-10.1c-4.5-6.9-3.1-14.2,1.7-19.8c2.8-3.2,6.5-5.2,10.4-6.9c7-2.9,14.4-4.8,22-5.7c3.2-0.5,6.5-0.8,9.7-0.7
			c1.8,0,3.7-0.2,5.5-0.5c1.3,0,1.6,1.1,2.1,1.9c1.7,2.8,3.2,5.6,4.5,8.6c1.6,3.6,3.7,7,6,10.1c-0.1,1.7-0.3,3.4-0.7,5
			c-0.6,3.6,0.5,6.4,3.7,8.3c5.9,3.5,12.5,5.3,19.2,6.6c3,0.5,6.1,0.8,9.2,0.7c6-0.1,12.1,0.2,18.1,1c6.1,0.6,12.3-0.2,18.1-2.5
			c1.2,0,2.5,0,3.7,0.3c-0.4-1.1-1.5-1.5-1.7-2.5s0.2-2.1,0.3-3.2c0-0.8-0.2-1.6-0.5-2.3c-0.4-1.1-0.3-2,1-2.3
			c0.7-0.2,1.4,0.2,2.3-0.4c-2.5-3-6.7-1.9-9.4-4c-8.7-5.8-18-6.6-27.6-2.8c-2,0.8-3.9,1.7-5.9,2.5c-3,1.3-4.4,0.2-3.8-2.9
			c0.5-3.6,1.6-7.1,3.3-10.3c2.6-2.2,4.7-5,6.1-8.1C335.8,438.8,336.3,437.4,338,437.2z"/><path fill="#38a1fc" d="M305,95.5c0.5,0.4,1.2,0.2,1.8,0.4c1.3,0.9,2.3-0.3,3.5-0.4c0.7-0.1,1.3,0.3,1.9,0.2c0.7,0.7,1.9,0.8,2.7,0.3
			c0.5-0.3,1.1-1,1.9-0.3c2.6,0.9,5.4,1,8.1,1.6c6.1,1.2,11.7,3.9,17.2,6.7c0.2,1.8,1.7,0.7,2.5,1.2c0.2,0.9,1,1.2,1.7,1.6
			c-0.9,3,1.6,1,2.3,1.6c0.5,1.2,1,2.4,2.6,2.3c-0.5,1.7-0.5,1.7,0.8,2.3c0.1,0.3,0.2,0.5,0.4,0.8c3.7,4.5,4.8,9.7,4.8,15.3
			c0,2.4,0.3,4.8,0.5,7.2c0.4,3.3-0.1,6.7-1.4,9.8c-0.4,0.9-0.6,1.5,0.5,2c6.4,2.9,9.4,8.4,11.4,14.7c1.3,4.4,1.7,9,1.3,13.5
			c-1.1,1.1-2.3,0.3-3.4,0.1c-1.9-0.5-3.9-1.1-6.3-0.7c3.4,1.4,7.2,0.4,9.5,3.5c0.3,0.8,0.3,1.7,0,2.5c-1.1,1.2-2,0.2-3-0.2
			c-1.5-0.6-2.9-1.7-5.3-1.9c1.5,1.4,3,1.7,4.1,2.4s2.8,1.1,3.3,2.8c-0.3,0.7-0.9,1.3-1.7,1.6c-1.9,0.4-2.5-1.6-4.2-2.1
			c0.9,2.1,3.5,2.7,3.7,5.1c-0.7,0.9-1,2-1.8,2.9c-1.7-0.3-1.6-2.1-2.6-3c-0.8-0.8-1.2-1.9-2.5-2.7c0.6,1.8,1.7,2.9,2.4,4.3
			c0.5,1,1.6,1.9,1,3.3c-2.9,3.1-6.4,5.5-10.3,7c-2,0.6-3.3,2.6-3,4.7c0.1,1.3,0.8,3.1-1.3,3.7c-1.1-1.6-0.6-3.4-0.6-5.1
			c0-1.3-0.4-1.5-1.4-0.9c-7.6,4.6-16,5.8-24.6,6.8c-3.2,0.3-6.5,0-9.5,1.4c-0.6,0.3-1.3,0.1-1.6-0.5c-0.4-0.6-1.3-0.8-1.9-0.4
			c-1,0-2-0.1-3-0.4c-1-0.7-2.1-0.3-3.2-0.4c-5.4-2.6-10.7-5.2-15.2-9.1c-0.9-0.6-1.6-1.3-2.2-2.1c-0.9-5.9-4.3-10.4-8.4-14.4
			c-1.6-1.4-3.2-2.9-4.5-4.5c-0.2-1.2-0.9-2.2-2-2.8c-3.5-2-6.5-4.8-9.8-7.2c-5.4-3.8-10.4-8.4-15.5-12.6c-0.8-0.6-1.2-1.5-1-2.4
			c0.1-1.6,0.5-3.1,1.3-4.5c2.2-3.4,4.7-6.7,7.4-9.7c4.6-2.6,9.8-4.1,15.1-4.5c3.5-0.1,7.1,0.2,10.5,0.8c7.5,1.1,14.8,2.8,22.4,2.4
			c2.1,0,4.3-0.4,6.3-1.1c1.8-0.7,2.3-1.9,1.7-3.8c-1.7-5-6.3-7.1-11.2-5c-2.3,0.9-4.2,2.4-5.8,4.2c-2.6,3-5.7,3.9-9.5,3
			c-3.6-0.8-7.3-1.2-11.1-1.4c-4.9-0.2-9.7,0.5-14.3,2.2c-0.8,0.3-1.8,1-2.6,0.1s-0.2-2,0.2-2.9c3.1-6.8,7-13.2,12.5-18.3
			c0.9-0.8,2.4-1.6,1-3.2c-0.2-0.2-0.3-0.5-0.4-0.7c1.3-0.5,2.5-1.2,3.5-2.1c8.9-7,18.5-12.7,30-14.1c0.4-0.1,0.7-0.2,1.1-0.3
			C302.7,96,303.8,95.4,305,95.5z"/><path d="M272.1,179.8c2,1.8,4,3.6,5.9,5.4c2.1,2.1,3.9,4.5,5.2,7.1c1.2,2,1.9,4.3,1.8,6.6c0.8,2.1-0.2,3.8-1.1,5.5
			c-1,1.9-0.8,3,1.2,4c3.4,1.8,6.2,4.3,9.7,6c3,1.4,3.6,1.2,5.5-1.6c0.7-1,0.8-2.5,2.3-3c0.9-1.3,1.8-0.9,2.6,0
			c0.5,2.7-1.1,4.7-2.7,6.4c-2,2.2-2.3,4.3-0.9,6.8c0.8,1.3,0.5,3.7,2.2,3.9s2.4-2.1,3.4-3.3c2.4-2.4,3-6.2,1.5-9.3
			c-0.5-1.2-1.2-2.6-0.5-4c0.9-1.1,1.5-1.2,2.1-0.3c0.3,0.4,0.1,1.1,0.6,1.4c1.2,0.7,1.3,2,1.6,3.1c1.3,3.6,1.3,3.6,5.2,3.6
			c7.3,0.1,13.8-2.6,20.3-5.4c0.7-0.3,1.3-0.7,2-1c3.3-1.3,5.8-3.1,5.1-7.2c0-0.7,0.2-1.3,0.7-1.8c0.6-0.4,1.1-0.9,2.1-0.7
			c0.1,2.3,0.2,4.7,0.3,7c0.7,1.6-0.5,2.4-1.4,3.2c-1.5,1.2-3.1,2.1-4.8,2.9c-8.4,4-16.9,7.5-26.5,6.7c-1.8-0.2-3.6,0.8-4.3,2.5
			c-0.7,1.3-1.6,2.6-2.6,3.6c-2.7,2.4-3.1,5.5-3.4,8.8c-1,9.7-2.1,19.4-3.1,29.1c-0.6,4.1-0.8,8.3-0.8,12.5
			c0.2,4.9-1.4,8.8-5.5,11.8c-2.6,1.9-4.8,4.4-7.3,6.4c-3.9,3.2-5.6,2.8-7.7-1.9c-4.1-9.2-4-18.3,0.3-27.5
			c4.8-10.6,9-21.5,14.2-31.9c0.3-0.8,0.7-1.5,1.2-2.2c3.4-4,2.6-8,0.5-12.2c-0.4-0.9-1.1-1.7-2-2.2c-4-1.7-7.4-4.3-11-6.6
			c-2.8-1.8-2.8-1.8-4.8,1c-3.2,4.6-7.1,8.7-11.5,12.1c-0.6,0.5-1.3,1-2.1,1.4c-0.7,0.5-1.7,0.4-2.3-0.3c-0.6-0.7-0.6-1.8,0.1-2.4
			c0,0,0.1-0.1,0.1-0.1c0.7-0.7,1.5-1.4,2.3-2c6-5,11-11.2,14.5-18.2c2-4,2-7.7-0.7-11.5c-3.2-4.5-7.2-8.3-11.8-11.4
			c-6.8-4.6-13.8-8.8-20-14.2c-4.3-3.6-8.1-7.7-11.3-12.3c-3.8-5.5-8-10.8-11.2-16.7c-0.9-1.7-1.9-1.7-3.3-0.8
			c-4.4,3-8.4,6.4-12.7,9.5c-8.6,6.1-18.2,10.1-28.3,13c-4.1,1.2-4.2,1.2-2,4.8c6.2,9.9,12.6,19.8,20.6,28.5c3.8,4,8.3,7.2,13.3,9.6
			c4.1,2.1,8.4,4,12,7.1c5.7,5,9.6,10.8,10.1,18.8c0.4,7.8-0.6,15.4-1.7,23c-0.2,1.6-0.5,3.1-1,4.6c-3.2,8.4,0,15.7,4.3,22.6
			c4.5,6.9,10.1,12.9,16.7,17.9c14.3,11.2,30.1,20,45.6,29.2c1.5,0.9,3.2,1.4,5,1.5c3.9,0.2,7.8,0.8,11.7,0.4
			c2.6-0.3,5.2-0.1,7.8-0.1c9.6-0.1,19.1-1.6,28.6-2.8c1.1,0,2-0.8,2-1.9c0-0.2,0-0.4-0.1-0.6c-0.9-6.5-1.2-13.1-1.9-19.7
			c-0.6-6.3-0.9-12.6-1.4-18.9c-0.6-7.6-1.5-15.2-1.9-22.8c-0.1-2.1-1-4-2.7-5.3c-1.7-1.5-3-3.4-3.9-5.4c-0.5-1-1.1-2.2,0.2-3
			s2.3,0.2,3,1.3c0.9,1.5,2,2.9,3.2,4.2c1.2,1.4,3.1,1.9,4.8,1.2c11.1-4.2,22.4-7.4,33.4-11.8c4.7-1.9,8.8-5.1,11.6-9.3
			c2.1-3,4.2-5.9,6.1-9c1.5-2.3,2-5.1,1.2-7.7c-3.3-11.9-5.9-24.1-9.2-36c-0.8-3-1.1-3.2-4-2.6c-4.2,0.9-8.3,1.9-13,2.8
			c2.6,1.6,5,2.9,7.4,4.2c2.1,1,4,2.4,5.6,4.1c0.8,0.8,1.6,1.9,0.5,2.9s-2.1,0.4-3-0.3c-3.4-2.3-6.9-4.5-10.5-6.4
			c-3.5-1.9-7.4-3.1-10.8-5.2c-2.4-1.7-5.2-1.7-7.9-2.3c-0.8-0.2-1.6-0.3-2.4-0.5c-0.4-0.1-0.5-0.5-0.5-0.9c0-0.4,0.3-0.7,0.6-0.8
			c0.6-0.1,1.3-0.1,1.9-0.1c1.9,0.1,3.9,0.5,5.7,1.1c1,0.4,2,0.6,3,0.6c1.9,1.2,4.1,1.6,6.3,1.2c6.5-1.2,12.8-2.7,19.2-4.2
			c1.1-0.3,1.2-0.8,1.1-1.8c-0.1-2.9,0-2.9,2.8-3.4c1.1-0.2,2.2-0.5,3.2-0.9c2-0.7,2.2-0.6,3.2,1.6c0.8,0.9,1.4,2,1.6,3.2
			c3.2,10.9,6.3,21.8,8.5,32.9c0.3,1.3,0.4,2.6,0.2,3.9c0.1,2.5,0.4,5,1,7.4c0.5,2.5,0.1,4.4-2.2,5.7c-0.7,0.4-1.4,1-1.9,1.6
			c-2.1,2.1-2.2,2.2-4.3,0.1c-2,2.9-4,5.8-5.8,8.8c-3.7,5.8-9.2,10.2-15.6,12.6c-6.2,2.5-12.6,4.5-19,6.6c-5,1.6-9.7,3.7-14.7,5.3
			c-1.1,0.4-1.4,1-1.3,2.1c0.5,6.1,0.9,12.2,1.4,18.4c0.5,5.8,1,11.7,1.4,17.5c0.8,9.7,1.4,19.5,2.7,29.2c0.1,1,0.2,2.1-0.7,2.5
			c-1.7,0.5-1.5,1.7-1.3,2.9c0.8,5.3,1.5,10.7,2.4,16c1.4,8.2,3.1,16.5,4,24.8c0.9,9.5-0.1,19-2.8,28.1c-1.3,4.6-3.2,9.1-5.5,13.4
			c-4.4,8.2-9.3,16.2-14.6,23.8c-0.4,0.5-0.7,1.1-1,1.6c-1.5,1.7-2.7,3.7-3.6,5.8c-1,2.2-2.6,4-4.7,5.2c-0.9,0.9-2,1.6-3.2,2.1
			c-7,2.9-14.3,5.2-21.6,6.9c-1.9,0.4-3.7,0.7-5.2-0.8c-2-1.1-3-3-3.9-4.9c-2.2-4.9-4.7-9.6-7.5-14.2c-0.3-0.4-0.5-0.7-0.9-1
			l-0.2-0.5c-0.1-0.2-0.3-0.4-0.4-0.6c-1.6-2.8-3.6-5.4-5.9-7.7c-7.3-7.6-14.7-15.2-22.1-22.8c-0.1-0.1-0.3-0.2-0.5-0.3
			c-0.6-0.1-1.2-0.4-1.7-0.9c-6.1-7-11.5-14.3-13.6-23.6c-0.3-1.7-0.4-3.4-0.3-5.2c-0.3-1.5-0.6-3.1-0.9-4.6c-0.1-0.5-0.3-1-0.5-1.4
			c-3.7,1.3-7.5,2.2-11.4,2.7c-9.9,0.8-19.2-0.6-27.8-6.1c-7.1-4.6-14.1-9.3-21.5-13.4c-8.7-4.9-17.9-8.7-27.8-10.2
			c-5.9-0.8-11.8-1.2-17.8-1.4c-1.8,0-3.5-0.2-5.2-0.7c-1.4,0.3-2.7-0.6-3-2c-0.1-0.2-0.1-0.5,0-0.7c-0.2-5.4-1-10.7-0.7-16
			c0-0.8,0.3-1.6,0.7-2.3c0.7-1.6,1.9-3,3.4-3.9c2.6-1.8,4.9-4.1,6.6-6.7c3.6-4.9,6.8-10,9.6-15.4c3.7-7,7.4-14,12.2-20.3
			c3.8-5.1,8.3-9.6,13.3-13.5c5.2-4,11.2-6,17.6-7.2c7.9-1.6,14.9,0.9,21.6,4.6c3.9,2.3,8,4.4,12.1,6.3c4.3,1.8,4.4,1.8,5.2-2.7
			c1.2-6.2,2.5-12.4,3.1-18.7c0.5-5.5,0.8-11-0.2-16.4c-0.5-2.6-1.7-5.1-3.4-7.2c-3.1-4.3-7.4-7.7-12.2-9.9
			c-11.6-5-20.4-13.1-27.4-23.5c-4.8-7.2-10.1-14.1-14-21.9c-0.2-0.8-1.1-1.3-1.9-1.1c0,0,0,0,0,0c-1.6,0.3-2.6-0.5-3.3-2
			c-0.3-0.6-0.6-1.2-0.8-1.8c-1.1-3.4-0.6-4.4,2.8-5.6l0.8-0.3c1.9-1.5,4.3-1.7,6.4-2.6c6.8-2.7,13.3-6.2,19.2-10.5
			c5.8-4.2,12.1-7.6,17.6-12.2c0.5-0.4,1.1-0.6,1.8-0.6c0.5-0.4,1-0.9,1.5-1.2c1.9-1.3,3.6-1.1,4.2,1c3.5,11.2,11.3,19.8,17.6,29.3
			c0.9,0.2,1.7,0.8,2.2,1.6c6,7.2,13.4,12.7,21.3,17.6c0.2,0.1,0.5,0.3,0.7,0.4C267,176,270.3,177,272.1,179.8z"/><path fill="#38a1fc" d="M217.1,125.3c-2.8,2.4-5.8,4.6-8.9,6.6c-3.9,2.5-7.8,5.1-11.6,7.8c-6.4,4.4-13.3,7.9-20.5,10.5
			c-1.3,0.5-2.6,0.9-4,1c0.4-5.4,1.6-10.6,2.4-16c1.1-7.9,2.2-15.8,3.2-23.7c0.6-4,1-8.1,1.1-12.2c0-5.2-1.5-6.9-6.4-8.3
			c-9.7-2.7-19-6.3-27-12.9c-3.8-3.2-6-7-5.8-12.1c0-3,0.2-5.9,0.5-8.9c0.7-3.8,2.1-4.5,5.6-2.7c0.6,3.4,0.4,6.8,0.9,10.2
			c0.5,3.8,2,6.9,5.5,8.7c-3.7-2.1-4.9-5.6-5.3-9.5c-0.3-1.9-0.5-3.8-0.6-5.8c0-1-0.1-2.1,0.7-2.8l4.3,0.6c1.2,1,0.8,2.4,0.8,3.6
			c0.1,3.8,2,7.4,5.2,9.5c-4.2-3.9-5.9-9.1-4.2-13.2c3.3-0.5,5.1,0.3,6.1,3.3c0.9,2.7,2.5,3.7,5.2,4.1c9.9,1.1,19.5,4.3,28.1,9.3
			c2.2,1.2,3.8,3.4,4.2,5.9c0.4,2,0.6,4.1,0.5,6.1c0,2,0,3.9,0.1,5.9c0.1,3.1,0.9,6.1,2.5,8.8c5.1,8.2,9.7,16.7,15.6,24.5
			C215.9,124.2,216.4,124.8,217.1,125.3z"/><path d="M19.6,369.8C8.8,360.2,1.6,348.6,0.2,334c-1.1-12.1,1.9-23,11-31.7c6.2-5.9,13.4-7.6,21.6-6.1c4.4,0.9,8.6,2.4,12.5,4.6
			c3.9,2.2,7.7,4.5,11.3,7.1c0.4,1.4-0.5,2.3-1.2,3.2c-3.5,4.9-7.7,9.3-11.4,14c-10.1,12.6-17.8,26.9-22.8,42.2
			C20.9,368.3,21,369.6,19.6,369.8z"/><path fill="#38a1fc" d="M180.5,437.3c-1.1,0.4-2.3,0.6-3.5,0.5c-7.7,0.3-15.4,0.1-23.1-0.6c-6.3-0.6-12.6-1-18.7-2.2
			c-1.3-2.5-0.8-5.1-0.6-7.6c1.3-18.1,5.6-35.8,12.7-52.5c0.6-1.5,1.1-3.2,2.7-4.1l21.7,7.3c0.6,0.8,0.8,1.9,0.6,2.9
			c-0.8,12-0.9,24,1.7,35.8c1.3,5.9,3.2,11.7,5.8,17.2C180.2,435,181,436,180.5,437.3z"/><path fill="#38a1fc" d="M124.3,358.6c7.2,4.1,14.7,7.7,22.4,10.8c0.2,0.1,0.3,0.2,0.4,0.4c0.6,1.1-0.1,2-0.5,2.9
			c-6.2,14.8-10.8,30.1-12.6,46.1c-0.6,4.1-0.9,8.3-0.8,12.5c0.1,1.2,0.3,2.4-0.5,3.5c-10.8-1.8-21.3-4.9-31.4-9.2
			c-0.4-0.2-0.9-0.2-1.2-0.6c-0.4-0.9-0.5-2-0.2-3c2.1-13.8,4.5-27.5,10.2-40.4c3.2-7.3,6.8-14.5,11.7-20.8
			C122.4,359.9,123.3,359.1,124.3,358.6z"/><path fill="#38a1fc" d="M97.6,424c-4.9-1.9-9.7-4.2-14.3-6.7c-5.2-2.7-10.2-5.6-15.1-8.8c-0.2-0.9-0.1-1.9,0.2-2.7
			c3.7-12.8,7.1-25.8,13.6-37.6c4.5-8.4,9.9-16.4,16-23.8c0.4-0.7,1.2-1.2,2-1.4c7,5.2,14.4,9.8,21.7,14.4c0,0.9-0.4,1.8-1,2.5
			c-10,13.6-16.1,29-19.5,45.5c-1.1,5.5-1.9,11-2.8,16.5C98.4,422.6,98.5,423.5,97.6,424z"/><path fill="#38a1fc" d="M76.6 323.9L90.1 335c2.6 2.1 5.2 4.2 7.7 6.3.3 1.2-.7 1.9-1.3 2.6-10.3 12.3-18.3 26.4-23.5 41.5-2.1 6.1-3.8 12.3-5.4 18.5-.3 1.1-.1 2.5-1.7 2.9-3.9-2.1-7.6-4.6-11.1-7.3-4.8-3.4-9.4-6.9-13.8-10.7.8-4.4 2.7-8.5 4.4-12.6 4.1-9.8 7.9-19.7 12.9-29.1 4.2-7.9 9-15.4 15.8-21.5C74.9 325 75.5 324.1 76.6 323.9zM415.7 208.9c-.8-2.6-1.5-5.3-1.9-8.1-2.3-10.8-5.7-21.3-8.5-31.9 1.7.2 2.6-1.3 3.8-2.1 3-1.7 4.7-5 4.5-8.4-.1-2.1.1-4.3 0-6.4-.1-1.6.1-3.2.5-4.7.8-2.3 1.1-4.7.8-7.1-.4-1.9.7-3.6 2.3-4.8 3.1-2.3 5.1-5.8 5.6-9.6.1-.8.1-1.7 0-2.5-.3-1.3-.2-2.6.2-3.8 1.2-3.3 4.6-4.2 7.1-1.7 1.5 1.5 2.5 3.6 2.6 5.7.2 2.1.1 4.3-.3 6.4-.4 2.1.1 2.6 2.2 2.1 2.1-.5 4.3-.5 6.3 0 .8.2 1.7.3 2.5.3 3.3.2 4.8-1 5.3-4.3.1-1.5.3-3 .6-4.4 1.1-3.1 3-3.6 5.6-1.5.8 2.2-.1 4.3-.4 6.5-.6 4.6-1.6 9.1-4.9 12.8 2.5-2.3 4.1-5.4 4.5-8.8.7-3.6 1-7.2 2-10.6.7-.4 1.5-.8 2.2-1.2 2.9-1.7 5.7.8 5.2 3.6-.4 3.5-.4 7.1 0 10.6.1 1.7 0 3.3 0 5-.1 2-1 3.8-2.6 5-2.8 2.3-6 4.1-9.4 5.4-4.4 1.9-8.8 3.4-13.4 4.7-3.8.9-6.8 3.8-7.8 7.6-1.4 4.6-2.3 9.2-3.3 13.8-1.7 7.8-3.8 15.5-6.2 23.1C419.8 203.1 418.1 206.2 415.7 208.9zM174.4 378.8c6.4 1.7 12.8 3.1 19.4 4 4.1.5 8.3.7 12.5 1.1.7 1 1.1 2.2 1.1 3.4 1.5 14.3 5.9 27.4 14.5 39 .6.6.9 1.4.9 2.3-7.4 3-15 5.2-22.9 6.6-5.4 1.1-10.8 1.8-16.2 2.1-1.6-.8-2.1-2.3-2.8-3.7-5.1-11-7.8-23-7.9-35.2-.1-5.6-.5-11.4.5-17C173.5 380.4 173.8 379.5 174.4 378.8z"/><path fill="#38a1fc" d="M19.6 369.8c.2-.2.3-.5.4-.7 2.7-10.3 7.5-19.7 12.8-28.9 4.2-7.2 9.1-14 14.6-20.3 2.7-3.2 5.4-6.4 7.9-9.8.6-.6 1-1.3 1.3-2.1 6.3 4.3 12.1 9.3 18 14.1-1.5 2.7-4 4.3-5.9 6.6-8.2 10-14.1 21.2-18.9 33-3.2 7.7-6.6 15.4-9.4 23.3-.3.8-.5 1.6-1.4 2C32.2 381.7 25.8 375.9 19.6 369.8zM242.7 374.6c.8 1.2.4 2.7.7 4 1.9 8.5 6.2 15.6 11.8 22.1 1 1.2 2 2.4 3 3.6-8.6 11.1-20.1 18.2-32.9 23.4-3-2-4.4-5.3-6.1-8.2-5.9-10.1-9.4-21.4-10.4-33-.1-.9-.5-1.8.3-2.7.1 0 .2 0 .3 0 11.4.9 21.6-3.6 32-7.4C242.2 376.2 242.7 375.4 242.7 374.6zM126.8 318.3c-.3 5.9.5 11.8.7 17.7 0 1.7.5 3 2.4 3.4-6.3 2.2-12.5 1.1-18.7-.1-9-1.7-15.4-7.4-21.6-13.6.6-1 1.8-1 2.7-1.3.8-.2 1.6-.5 2.3-1 .7-.5 1-1.4.6-2.2-.4-.9-1.2-.7-2-.5-1.2.2-2.3.7-3.5 1-1 .3-1.9.8-2.9.1l-.5-1.2c2.7-3.2 6.6-3.5 10.3-4 3.5-.4 4.3 0 10.9 3.3-3.6-3.9-8.1-4.6-13.1-4-3.2.4-6.1 1.7-9 2.8-.5-.9-.9-1.9-1.1-3-.2-.8-.9-1.4-1.8-1.4.2-1.5 1.4-1 2.2-1.1 1.2-.1 2.4 0 3.6-.2.9-.2 1.7-.5 1.7-1.6s-1-1.1-1.9-1.2c-1.3-.2-2.6.7-3.8-.3 2.2-3.7 5.7-5 9.7-4.8 4.1.3 8 2 11 5 1.7 1.6 3.4 3.1 5.1 4.7C115 319.3 120.4 320.8 126.8 318.3zM263.8 174.1c-8-4.6-15.3-10.5-21.4-17.5-.7-.8-1.3-1.6-1.9-2.3.2-.2.5-.4.6-.6 1.1-4.6 4.2-8 6.8-11.7s2.7-5.7.3-9.4c-1.1-1.8-2.4-3.5-3.6-5.3-2.3-3.3-2.6-7.8 2.2-10.8 1.6-1 3.3-1.7 5.1-2 5-.9 10-1.9 15.1-2l.3.3c-.2 1.8-1.5 2.9-2.7 4.1-5.8 5.6-9.5 12.5-12.4 19.9-.5 1.4-.5 2.9-.1 4.3-1.7 2.4-3.4 4.8-5.2 7.1-1.6 1.9-2.6 4.3-2.9 6.7-.2.7.1 1.5.7 1.8 4.7 3.8 9.4 7.7 14.2 11.6.9.8 2 1.4 3 2 .5.3 1.1.4 1.4.8 1.9 2.7 5.1 3.7 7.6 5.7.9.6 1.5 1.7 1.3 2.8l-7.9-5.3C264.1 174.2 264.2 173.8 263.8 174.1z"/><path fill="#010101" d="M472.6 234.9c.4 28.1-7.5 53.8-22.1 77.5-.4.6-.8 1.2-1.3 1.8-.3.4-.8.5-1.3.2-.4-.2-.6-.7-.5-1.2.3-1.1.8-2.1 1.5-3 5.8-9.6 10.5-19.7 14.2-30.2 5.1-15.7 7.5-32.1 7-48.6-.2-9.1-1-18.2-2.4-27.2-.5-3.3-1.4-6.6-2.6-9.7-.7-1.9-1.3-3.9-2-5.8-.3-.7-.5-1.5.4-1.9s1.4.3 1.6 1.1c1.7 5 4 9.8 4.8 15.1C471.6 213.5 472.5 224.2 472.6 234.9zM104.8 190c1.1-22.5 6.3-44.6 15.4-65.1 3.4-8.1 7.9-15.6 13.4-22.4.4-.5.8-1 1.3-1.5.3-.4 1-.5 1.4-.2 0 0 .1 0 .1.1.5.4.6 1 .2 1.5-.2.4-.5.8-.8 1.2-8.4 10.2-13.8 22-18.2 34.3-4.8 13.4-8 27.3-9.6 41.5-1.1 10.1-1.7 20.2-.2 30.3.2 1.1.4 2.2.6 3.3.1.5-.2.9-.6 1.1-.5.2-1.1 0-1.3-.5 0 0 0-.1 0-.1-.3-.8-.5-1.6-.7-2.4C104.7 204.1 104.4 197 104.8 190zM305.1 17.7c22.4.8 44.1 4.8 64.5 14.6.9.4 1.8.9 2.7 1.4.5.3.8.9.5 1.4 0 0 0 0 0 0-.3.5-.9.7-1.4.5-.5-.1-1.1-.3-1.6-.6C353.6 27 336.3 23 318.5 20.9c-15.6-1.8-31-.1-46.3 3.3-3.4.9-6.8 2.1-10 3.5-.5.2-1 .5-1.5.6-.4.1-.8-.1-1-.4-.3-.4-.2-.9.1-1.3.8-.7 1.6-1.2 2.6-1.5 5.7-2.5 11.7-4.2 17.9-5.1C288.6 18.8 296.8 17.6 305.1 17.7z"/><path fill="#000101" d="M39 387c4.6-13 9.9-25.8 15.9-38.2 4.4-9.4 10.4-17.9 17.7-25.1.5-.7 1.2-1.2 2-1.5.7.5 1.4 1.1 1.9 1.8-9.9 9.4-16.9 20.7-22.2 33.1-4.3 10-8.8 19.9-12.4 30.1-.2.6-.5 1.2-1 1.7L39 387zM66 406.8c1.4-4.9 3-9.8 4.2-14.7 3.1-12 8.5-23 14.9-33.5 3.7-6.1 8-11.9 12.7-17.3.9.4 1.7 1 2.3 1.7-9.5 11-17.1 23.4-22.7 36.9-3.5 8.3-5.6 17.2-8.2 25.7-.1 1-.5 2-1 2.9C67.4 408 66.6 407.5 66 406.8zM97.6 424c1.9-16.5 5.2-32.6 12.5-47.7 3.1-6.8 7-13.1 11.7-18.9.9.3 1.7.7 2.4 1.3-.2.4-.4.8-.7 1.2-10.2 13.1-16.2 28-19.7 44.1-1.4 6.4-2.5 12.9-3.4 19.5-.1.5-.2 1.1-.4 1.6C99.2 424.9 98.3 424.6 97.6 424z"/><path fill="#010101" d="M132.7 434.9c-.6-.9-.4-2-.4-3 .4-15.3 3.1-30.5 8.1-45 1.9-5.8 4.1-11.5 6.6-17.1 1 .1 2 .4 2.8 1-5.5 12-9.6 24.6-12.1 37.6-1.7 8.8-2.6 17.7-2.7 26.6L132.7 434.9zM174.4 378.8c-.6 6.3-.8 12.6-.7 18.9.2 10.7 2.3 21.2 6 31.3 1.2 2.8 2.5 5.6 4 8.3l-1.9.3c-.5.2-1 .1-1.4-.2l0 0c-4.1-7.8-6.9-16.3-8.3-25-1.6-10.5-1.9-21.1-.8-31.7.1-.8.1-1.7.2-2.5C172.5 378.1 173.5 378.3 174.4 378.8z"/><path fill="#030303" d="M495,208.2c0.1,2.8-0.1,5.7-0.4,8.5c-0.1,0.5-0.2,1.1-0.3,1.6c-0.1,0.4-0.5,0.6-0.9,0.6
			c-0.5,0.1-0.9-0.2-1.1-0.7c-0.1-0.9-0.2-1.8-0.1-2.8c1.1-16.8-1.2-33.7-6.9-49.6c-0.8-2.3-1.8-4.5-2.7-6.7
			c-0.2-0.4-0.4-0.8-0.6-1.3c-0.2-0.5,0-1,0.4-1.2c0.4-0.2,0.9-0.2,1.3,0.2c0.7,0.7,1.2,1.6,1.5,2.6c3.3,7.6,5.8,15.5,7.3,23.6
			C494.3,191.4,495.1,199.8,495,208.2z"/><path fill="#010102" d="M209,383.9c0.6,3.9,1.2,7.9,1.9,11.8c2.1,10.9,6.6,21.2,13.2,30.1c0.5,0.5,0.9,1.2,1.1,1.9l-2.4,0.9
			c-6.6-8.1-11.3-17.5-13.8-27.6c-1.4-5.6-2.4-11.3-2.8-17L209,383.9z"/><path fill="#030303" d="M293.3 1.5c-.1.5-.6.9-1.2.9-.9.1-1.9.2-2.8.2-10.6.5-21.1 2.3-31.2 5.3-4.6 1.3-8.7 3.6-13 5.6-.8.4-1.9 1.5-2.7.3-.8-1.5.8-1.8 1.7-2.2 8.8-4.9 18.2-7.7 28.1-9.5 6-1 12-1.6 18-2.1.8-.1 1.7 0 2.5.3C293.2.5 293.4 1 293.3 1.5zM343.8 48.1c12.2.4 23.7 3.1 34.3 9.2 1 .6 2 1.3 3 2 .5.3.7.9.4 1.4 0 0 0 .1-.1.1-.3.5-1 .7-1.5.4-.7-.3-1.3-.7-2-1-9.1-5.4-19.4-8.6-30-9.4-1.8-.2-3.5-.2-5.3-.4-.8-.1-1.8 0-1.8-1.2.1-1 .9-1 1.7-1C343 48 343.4 48.1 343.8 48.1z"/><path fill="#050505" d="M133,128.6c0-1.5,0.3-2.9,0.8-4.3c3-9.5,8.5-17.5,15.3-24.6c0.3-0.3,0.6-0.5,0.9-0.7c0.4-0.3,0.9-0.3,1.3,0
			c0.5,0.3,0.6,0.9,0.4,1.4c0,0,0,0.1-0.1,0.1c-0.5,0.7-1,1.3-1.6,1.9c-5.6,6.1-10.4,12.6-13.2,20.5c-0.7,1.7-1.2,3.5-1.5,5.3
			c-0.1,0.8-0.2,1.6-1.2,1.6c-0.6,0-1-0.4-1.1-0.9C133,128.8,133,128.7,133,128.6z"/><path fill="#040404" d="M452.2,239.6c0,3.5-0.3,6.9-0.8,10.3c0,0.2,0,0.4-0.1,0.6c-0.3,0.8-0.2,2.1-1.5,1.9c-1.2-0.3-1-1.4-0.9-2.3
			c0.3-2.3,0.5-4.6,0.8-6.9c0.9-8-1.1-15.7-2.8-23.4c-0.1-0.7-0.3-1.4-0.4-2.2c-0.1-0.6,0.3-1.1,0.8-1.2c0,0,0,0,0,0
			c0.6-0.1,1.1,0.3,1.2,0.9c0.4,1.3,0.6,2.5,0.9,3.8C450.8,227.2,452.5,233.3,452.2,239.6z"/><path fill="#050505" d="M122.4 195c.1-8.4 1.9-16.6 5.2-24.3.4-.9.7-2.3 2-1.8s.6 1.9.2 2.9c-2.4 5.8-4 11.9-4.8 18.2-.3 2.9-.4 5.9-.3 8.9 0 .9.4 2.1-1 2.1s-1.2-1.2-1.2-2.1C122.4 197.6 122.4 196.3 122.4 195zM91.5 196.5c.7 0 1.1.3 1.2.8.1.7.2 1.5.2 2.2 0 8.5 1.6 17 4.6 25 .1.2.2.5.3.8.1.6 0 1.1-.6 1.4-.5.2-1 0-1.2-.4-.4-.6-.7-1.3-1-2-3-8.1-4.5-16.6-4.4-25.3 0-.6.1-1.1.2-1.6C90.8 196.9 91.1 196.6 91.5 196.5z"/><path fill="#020305" d="M85.4,318.7c0.1-0.4,0.4-0.8,0.8-1c4.3-1.9,8.8-3.2,13.5-2.6c2.8,0.3,5.4,1.5,7.6,3.3c0.6,0.5,1.1,1,1.5,1.7
			c0.4,0.4,0.4,1.1-0.1,1.5s-1.1,0.4-1.5-0.1c0,0-0.1-0.1-0.1-0.1c-5.9-6-12.4-4.5-19.1-1.7c-0.6,0.3-1.2,0.6-1.7,1
			C86,319.9,85.7,319.3,85.4,318.7z"/><path fill="#060606" d="M344.5,105.1c-0.4,0.3-0.7,0.5-1.1,0.8c-0.7,0.3-1.5,0.5-2-0.3s0.5-1.1,0.6-1.7c4.6-2.9,9.2-5.9,13.9-8.8
			c1.3-0.8,2.8-1.5,4.1-2.3c0.5-0.4,1.2-0.3,1.6,0.2c0,0,0.1,0.1,0.1,0.1c0.5,0.8,0,1.2-0.6,1.6s-1.5,0.8-2.2,1.3
			C354.1,99.2,349.3,102.1,344.5,105.1z"/><path fill="#030304" d="M86.8,321.7c2-0.6,4-1.2,6.1-1.8s2.9-0.2,3.3,1c0.4,1.4-0.3,2.9-1.6,3.5c-1.6,0.9-3.4,0.8-5.1,1.3
			c-1.5,0.4-3.1,0.3-4.6-0.1c-1.2-0.4-1.4-1.2-0.5-2.1C85.1,322.9,85.9,322.3,86.8,321.7z"/><path fill="#060607" d="M305,95.5c-1,1-2,1.6-3.3,0.5c3.7-5,6.8-10.4,10.1-15.6c0.5-0.9,0.9-2.5,2.3-1.8c1.6,0.8,0.3,2.1-0.3,3.1
			C310.8,86.4,307.9,91,305,95.5z"/><path fill="#070707" d="M437.1,291.5c-0.1,0.3-0.2,0.7-0.3,1c-1.7,5-3.7,9.9-6,14.6c-0.5,0.9-0.9,2.4-2.3,1.7s-0.3-1.8,0.1-2.7
			c2.3-4.5,4-9.1,5.8-13.8c0.2-0.5,0.4-1,0.6-1.6s0.6-1,1.3-0.9C437.2,290.1,437.1,290.8,437.1,291.5z"/><path fill="#020304" d="M84.4,309.9c1.6-0.3,3.3-0.5,4.9-0.5c0.9,0.1,1.6,0.3,1.9,1.3c0.2,0.8,0,1.7-0.7,2.3c-0.8,0.6-1.8,0.9-2.8,1
			c-1.7,0.3-3.5-0.4-5.2,0.3c-0.5,0.1-1.1,0.1-1.6,0c-0.7-0.2-1.6-0.2-1.6-1.2c0-0.8,0.5-1.4,1.3-1.6
			C81.8,310.8,83.1,310.4,84.4,309.9z"/><path fill="#030609" d="M456,122c0.7,1.7-0.1,3.3-0.3,4.9c-0.2,2-0.7,4-1,6c-0.5,2.8-1.7,5.5-3.4,7.8c-0.4,0.5-0.8,1-1.3,1.5
			c-0.6,0.6-1.4,1.3-2.1,0.6s0.3-1.4,0.8-1.9c2.4-2.5,3.9-5.7,4.4-9.1c0.5-3.2,1.1-6.4,1.7-9.6L456,122z"/><path fill="#030507" d="M147,55.1c0,3.6,0.3,7.2,1,10.8c0.3,2.8,2,5.3,4.6,6.6c0.8,0.4,2.2,0.8,1.6,1.9s-1.6,0-2.4-0.4
			c-2.9-1.4-5-4.1-5.4-7.3c-0.8-3.5-1.1-7.2-1-10.8c0-0.6,0-1.1,0.5-1.5L147,55.1z"/><path fill="#080909" d="M348.5,108.3c-2.3,1.3-2.3,1.3-3.9-0.2c0.2-0.8,1.1-0.8,1.6-1.4c3.3-1.4,6.4-2.9,9.5-4.6
			c0.5-0.3,1-0.5,1.5-0.8s1.3-0.4,1.7,0.2s0,1.3-0.5,1.6c-0.8,0.5-1.6,1-2.4,1.4C353.5,105.9,351,107.1,348.5,108.3z"/><path fill="#0a0b0b" d="M310.2,95.9c-0.6,0.5-1.2,0.8-1.9,1c-0.8,0.1-1.5,0-1.6-1c2.4-2.5,4.9-5,7.3-7.5c0.6-0.6,1.3-1.1,2-1.6
			c0.4-0.3,0.9-0.3,1.3,0.1c0.4,0.3,0.4,0.9,0.2,1.3c-0.4,0.5-0.8,1-1.2,1.5c-1.6,1.7-3.3,3.5-5,5.2C311,95.3,310.7,95.7,310.2,95.9
			z"/><path fill="#090909" d="M316.7,95.7c-1.1,0.8-2.4,1.4-3.8,1.6c-1.2,0.1-0.7-0.7-0.7-1.3c-0.1-0.3-0.1-0.4,0.3-0.5
			c2.7-1.5,5.2-3.2,7.7-5c0.3-0.2,0.6-0.5,0.9-0.7c0.8-0.5,1.6-1.4,2.4-0.3s-0.3,1.7-1,2.2C320.5,93.1,318.6,94.4,316.7,95.7z"/><path fill="#03060a" d="M153.1,55.7c-0.1,1.9,0.1,3.9,0.5,5.8c0.4,2.8,2.1,5.2,4.5,6.7c0.3,0.2,0.6,0.4,0.9,0.6
			c0.3,0.2,0.4,0.7,0.2,1c-0.2,0.3-0.6,0.5-0.9,0.4c-0.9-0.3-1.7-0.7-2.4-1.3c-2.5-2.1-4.1-5.1-4.4-8.4c-0.2-1.5-0.1-3.1-0.2-4.7
			C151.9,55.5,152.5,55.5,153.1,55.7z"/><path fill="#0b0b0c" d="M352,112.9c-0.9-0.1-2.1,1.1-2.7-0.2c-0.7-1.6,1.3-1.3,1.9-2.1l5.3-1.6c0.5-0.2,1.1-0.3,1.6-0.4
			c0.7-0.2,1.4,0,1.6,0.7s-0.3,1-0.8,1.3c-0.6,0.3-1.2,0.5-1.8,0.7L352,112.9z"/><path fill="#101010" d="M467.1,165.7c0,0.4-0.2,0.8-0.5,1.1c-0.4,0.3-0.9,0.2-1.2-0.2c0,0,0,0,0,0c-1.4-2.1-2.7-4.4-3.8-6.8
			c-0.2-0.5,0-1.2,0.5-1.5c0.5-0.3,1.1-0.1,1.4,0.4c0,0,0,0.1,0,0.1c1.2,2.1,2.4,4.2,3.5,6.3C467,165.2,467.1,165.4,467.1,165.7z"/><path fill="#bccde3" d="M312.5,95.5c-0.1,0.2-0.2,0.3-0.3,0.5l-2.1-0.1c0.1-0.5,0.5-1,1-1.1C311.4,95.3,312,95.4,312.5,95.5z"/><path fill="#4b8ee2" d="M180.5,437.3l1.4,0.2C181.3,438,180.9,437.8,180.5,437.3z"/><path fill="#fff" d="M286.7,435.1c0.3,0,0.5,0.3,0.4,0.6c0,0,0,0,0,0C286.8,435.6,286.6,435.4,286.7,435.1
			C286.7,435.1,286.7,435.1,286.7,435.1z"/><path fill="#38a1fc" d="M299.6,456.4c2.1,0.6,4.4,0.5,6.5-0.2c7.2-1.8,14.2-4.1,21-7c0.8-0.4,1.7-0.6,2.6-1c-1.4,3.2-2.4,6.4-3,9.8
			c-0.1,0.5-0.2,1.1-0.3,1.6c0,1.6,0.6,2.1,2,1.4c2.3-1.2,4.7-2.2,7.1-3.1c9.5-3.8,18.5-2.9,27.2,2.4c0.5,0.2,0.9,0.6,1.2,1.1
			c-0.6,0.5-1.3,0.7-2,0.7c-1.8,0.2-2.2,1.3-1.8,2.9c-0.1,0.3-0.3,0.5-0.5,0.6c-2.2,0.4-4.2-0.5-6.3-0.6c-1.4-0.2-2.8-0.1-4.1,0.4
			c6.2,0,11.9,2.6,17.9,3.7c1.2,0,2.4,0.5,3.3,1.2c0.3,1.2-0.4,2.2-0.6,3.4c-1.1,0.4-2-0.3-2.9-0.6c-1.3-0.5-2.6-0.8-4-0.8
			c-0.4,0-1,0-1.1,0.6s0.3,0.8,0.7,1.1c1.1,0.6,2.4,1,3.6,1.3c0.7,0.2,1.9-0.1,1.9,1.3c-5.7,2.7-11.8,3.1-18,2.8
			c-3.6-0.2-7.2-0.7-10.8-0.9c-2.3-0.1-4.6-0.1-7,0c-9.5,0.3-18.4-2.2-27-5.9c-0.6-0.3-1.2-0.6-1.7-0.9c-4.7-2.8-5.8-5.3-4.8-10.7
			C299,459.3,299.3,457.8,299.6,456.4z"/><path fill="#020406" d="M370.3,470.2c-3-0.1-5.9-0.7-8.7-1.6c-3.9-1.4-8.1-2.1-12.3-2.1c-0.4,0-0.7,0-1.1,0c-0.5,0-0.9-0.4-0.9-0.9
			c0-0.5,0.2-0.9,0.7-1.1c0.7-0.3,1.4-0.4,2.2-0.3c3.2,0,6.5,0.4,9.6,1.1c0.8-0.1,1.7,0.1,2.4,0.5l0.7,0.3c0.5,0.2,1,0.3,1.5,0.4
			c1.8,0.8,3.9,0.4,5.4,1.8C370.3,468.8,370.5,469.5,370.3,470.2z"/><path fill="#050709" d="M359.8,464.7c-1.6-2-1.5-2.5,0.9-3c1.1-0.2,2.2-0.2,3.3-0.3c1.4,0.7,3,0.7,4.5,1.1c1.6,0.3,3.2,1,4.5,2.1
			c0.5,0.4,0.9,0.8,0.6,1.4c-0.2,0.6-0.9,0.9-1.5,0.7c0,0-0.1,0-0.1,0c-0.6-0.2-1.3-0.4-1.9-0.5c-1.5,0.3-3.1,0.5-4.6,0.4
			c-0.4,0-0.8-0.1-1.3-0.1c-0.7,0-1.4-0.1-2-0.3C361.5,465.5,360.3,465.7,359.8,464.7z"/><path fill="#030405" d="M367.9,476.3c-1.2-0.3-2.5-0.6-3.7-1c-0.7-0.2-1.4-0.4-2.1-0.7c-1-0.5-2-1.3-1.7-2.5s1.6-0.8,2.6-0.8
			c2.5,0.1,4.6,1.2,6.7,2.3c0.9,1.1,2.7,1.4,2.8,3.3C370.9,477.2,369.5,476.2,367.9,476.3z"/><path fill="#4b8bda" d="M365.5,465.9c1.6,0,3.2-0.3,4.7,0.3c-1.4,0.5-0.3,1.4-0.4,2.1c-2.1-0.1-4.1-0.6-6-1.4
			c-0.4-0.2-0.9-0.1-1.2-0.5c-0.1-0.1-0.3-0.1-0.4-0.1c-0.2,0-0.3-0.1-0.2-0.2s0.1-0.2,0.1-0.2h2.2
			C364.6,466.2,365.1,466.1,365.5,465.9z"/><path fill="#fff" d="M368.9,179.2c0.9-0.1,1.9,0.1,2.7,0.6c6.6,2.9,13.2,6,19.1,10.3c0.8,0.6,1.8,1.6,2.6,0.5s-0.4-1.8-1.2-2.4
			c-3.8-2.8-7.8-5.2-12-7.1c-0.9-0.3-1.7-0.8-2.4-1.5l17.3-3.8c0.4-0.1,0.9-0.1,1.5-0.2c1.4,5.5,2.9,11,4.3,16.5
			c2.2,8.4,3.9,16.8,6.4,25.1c0.4,0.9,0.4,1.9,0,2.7c-4.3,8-8.6,16.1-17,20.9c-3,1.6-6.2,3-9.5,4.1c-8.6,2.9-17.3,5.6-25.8,8.9
			c-4,1.5-5.5,1-8-2.5c-0.9-1.2-1.6-2.5-2.4-3.8c-0.4-0.6-0.9-1-1.6-0.6s-0.6,1.1-0.2,1.7c1.5,2.7,3,5.4,5.6,7.2
			c0.8,0.5,1.2,1.3,1.2,2.2c0.5,6.2,1,12.4,1.5,18.6c1.2,14.2,2.3,28.4,3.5,42.5c0.1,1.2,0.2,2.4,0.5,3.6c0.2,1.3-0.1,1.8-1.5,2
			c-13.7,2.1-27.6,3.2-41.4,3.2c-2.1,0-4.3-0.1-6.4-0.3c-2.6-0.1-5.2-0.9-7.4-2.1c-12.3-7.4-24.7-14.5-36.6-22.6
			c-7.5-5-14.4-11-20.4-17.7c-3.8-4.2-6.4-9.1-8.8-14.1c-1.9-4-2.4-8.6-1.2-12.8c2-7.9,3.1-16.1,3.4-24.3c0.1-4.3,0-8.6-1.3-12.7
			c-0.5-1.8-1.4-3.4-2.5-4.9c-3.7-5-8.1-9.2-14-11.7c-11.4-4.9-20-13.1-26.8-23.3c-4.2-6.3-8.9-12.2-12.4-18.9
			c-0.4-0.8-0.8-1.6-1.3-2.6c0.8-0.5,1.7-0.8,2.6-0.9c14.2-3.6,27.4-10.4,38.6-19.9c1-0.8,2.1-1.6,3.1-2.4s2.4-1.7,3.6-2.4
			c0.6,0,0.8,0.4,0.9,0.7c3.8,7.3,8.8,13.8,13.6,20.4c5.3,7.4,12.4,12.8,19.8,17.9c4.6,3.2,9.5,5.9,13.8,9.4
			c4.3,3.2,7.7,7.4,10,12.2c0.6,1.3,0.8,2.9,0.4,4.3c-0.4,1.9-1.1,3.7-2,5.5c-3.8,7.2-9.1,13.5-15.4,18.6c-0.8,0.6-2.7,1.2-1.5,2.7
			c1,1.2,2-0.3,2.8-0.9c5.1-3.9,9.6-8.6,13.2-13.9l1.4-2c1.9,1.2,3.7,2.3,5.4,3.4c3.2,2.1,6.3,4.3,10,5.6c0.6,0.2,1.1,0.7,1.2,1.4
			c0.4,1.6,1,3.2,1.7,4.7c1.2,2.3,0.7,4.1-0.5,6.2c-7.4,13.3-13,27.3-18.6,41.4c-3.4,8.5-1.2,16.5,2.4,24.2c1,2.1,2.2,2.3,4,0.9
			s3.6-3,5.3-4.5c1.4-1.5,3-2.8,4.6-4c3-1.9,4.1-4.7,4.2-8.1c0.4-15.7,2.9-31.3,4.3-46.9c0-2.1,1-4.1,2.6-5.5
			c1.8-1.5,2.9-3.6,4.1-5.6c0.4-1,1.5-1.6,2.6-1.5c11.9,0.9,22.2-3.6,32.2-9.3c1.1-0.5,1.9-1.6,2-2.9c0.5-1.9,0.2-3.9,0.3-5.8
			c-0.1-0.8,0.4-1.6,1.2-1.9c4.7-1.7,9-4.4,12.6-7.8c1.6,0.4,1.9,1.9,2.4,3.2c2.4,5.3,4.2,10.9,5.3,16.6c0,0.9,0.5,1.8,1.3,2.3
			c-0.5-4-1.5-8-2.8-11.9c-1.1-3.1-2.4-6.2-3.8-9.2c-0.4-0.9-1.2-1.7-0.6-2.8c0-1.1,0.6-2.2,1.6-2.8c1.9,0.4,2.5,2.3,3.7,3.5
			c0.8,0.9,1.3,2,2.5,2.6c-0.8-2-2.1-3.9-3.6-5.5c-0.9-1-2.2-1.8-1.8-3.5l1.4-1.6c2.7,0.2,4.1,2.3,6,3.7c1.3,1,2.2,2.5,3.9,3
			c-1.8-2.9-4.5-5-7.1-7c-0.8-0.6-2.1-0.9-2.1-2.4L368.9,179.2z"/><path d="M334.9,141.2c4.6,0,8.7,1.5,12.9,3c5.9,2.1,8,7.1,10.2,12.1c0.7,1.5,0.5,3.2-0.5,4.5c-0.7,0.8-0.5,1.7-0.4,2.6
			c0.2,3.9,0.5,7.9-0.5,11.7c-1.6,6.6-5.1,11.5-12.2,13c-0.7,0.1-1.3,0.2-1.4,1.1s-0.2,2-1.4,2s-0.9-1.4-1.5-2.2l-5.8,6
			c-1.6,1.9-4.1,2.8-6.5,2.3c-2-0.4-4.1-0.3-6-1.1c-2.2-0.9-2.6-1.7-1.5-3.8c1.6-3.4,1.9-7.3,0.7-10.9c-0.3-1-0.7-1.6-1.9-1.7
			c-4.3-0.1-7.9-2.1-11-4.8c-1.1-1-2-1.1-3.1-0.1c-1.5,1.3-3.2,2.6-4.8,3.9c-0.7,0.5-1,1.4-0.5,2.2c2.3,5,4.8,9.9,8.5,14
			c4,4.3,9.4,5.4,15.1,5.2c1.1-0.1,2.2-0.3,3.3-0.6c0.8-0.2,1.6-0.3,1.9,0.6c0.4,1.1-0.5,1.5-1.3,1.7c-2.7,0.8-5.5,1-8.3,0.6
			c-6.6-0.7-12.5-4.5-15.8-10.2c-2.1-3.3-4-6.8-5.6-10.4c-1,0.6-1.9,1.4-2.5,2.4c-0.5,0.6-0.9,1.2-1.4,1.8c-0.3,0.5-1,0.7-1.5,0.4
			c-0.7-0.4-0.6-1.1-0.3-1.7c0.8-1.6,1.9-3,3.2-4.2c1-0.7,1.3-2.1,0.6-3.2c-2-4.2-4.2-8.3-6.5-12.4c-0.7-1.2-1.4-1.2-2.5-0.8
			c-4.7,1.5-9.2,3.5-13.5,5.9c-0.5,0.3-1,0.6-1.5,0.8c-0.7,0.4-1.6,1-2.2,0s0.4-1.5,1-2c1.8-1.2,3.6-2.3,5.6-3.1
			c3.4-1.6,6.9-2.8,10.6-4.2c-1.7-2.3-3.5-4-6.4-4c-0.7,0-1.5-0.1-2.2-0.1c-1-0.1-2.4,0.4-2.3-1.2s1.5-1,2.5-1c1.7,0,3.4,0,5,0
			c3.9-0.1,7.8,0.2,11.7-0.6c3.7-0.8,7.2-2.2,10.5-4.2c-2.1-0.8-4.2-1.3-6.5-1.4c-1.7-0.2-3.3-0.2-5-0.4c-0.6,0-1.1-0.3-1.2-0.9
			s0.5-0.9,1-1.1c1.4-0.4,2.8-0.4,4.2-0.2c2.9,0.2,5.7,0.8,8.5,1.6c1.4,0.5,3,0.3,4.1-0.7c4-3,8.6-5,13.5-5.9
			c1.1-0.3,2.2-0.4,3.3-0.3C329.8,140.8,332.4,140.8,334.9,141.2z"/><path fill="#000101" d="M252.1,141.2c-1.4-0.9-1.4-2.1-0.9-3.6c3-8.3,7.2-15.8,13.6-22c0.9-0.8,1.6-1.8,2.4-2.7
			c1-0.1,1.7,0.4,2.8,1.1c-7.3,6.3-12.9,14.2-16.5,23.1c0.3,0.5,0.6,0.5,0.8,0.4c7.7-3.4,15.7-3.4,23.8-2.1c2,0.3,4.1,0.5,6.1,0.9
			c1.4,0.3,2.8,0,3.9-1c1.3-1.1,2.5-2.2,3.7-3.4c1.6-1.7,3.7-2.9,5.9-3.6c4.3-1.5,9.1,0.7,10.7,5c1.7,3.9,1.1,5.1-3,6.1
			c-4.5,1-9.1,1.1-13.6,0.4c-4.1-0.6-8.3-1.2-12.4-1.9C270,136.3,260.8,136.6,252.1,141.2z"/><path fill="#fff" d="M345.9,202.8c0,0.8,0.1,1.7,0.1,2.5c0,4.3,0,4.3-3.9,6.3c-4.4,2.3-8.9,4.2-13.6,5.7
			c-4.4,1.5-8.9,1.7-13.5,1.7c-1.1,0.1-2-0.6-2.2-1.7l-1.8-5.9c0.2-1.5,1.5-1.2,2.4-1.2c3.6-0.2,7.2-0.9,10.8-1.1
			C331.8,208.6,339.2,206.4,345.9,202.8z"/><path fill="#fefefe" d="M302.6 209.8c-.6 1.8-1.6 3.5-2.9 5-1.2 1.5-1.9 1.7-3.6.9-1.9-.9-3.8-1.9-5.6-3-2.4-1.4-4.6-3.1-7-4.5-1.1-.7-1.7-1.3-.8-2.6 1.2-2.1 2-4.4 2.4-6.8 2.1 1.5 4.2 3 6.3 4.5 2.8 2 5.8 3.6 9 4.9C301.2 208.6 302.3 208.8 302.6 209.8zM308.3 210.3c.7 2.5 1.5 5 2.2 7.5.2.7.5 1.4 0 2.1-1.7 2.4-3 5.1-5.2 7.2-1.7 1.7-2 1.6-3-.6-.4-.9-.7-1.9-1.1-2.8-1.4-2.9-2.4-5.5.9-8 1.7-1.3 2.4-3.7 3.1-5.8C306.3 209.8 307.3 210 308.3 210.3z"/><path fill="#010202" d="M353.6,138.3c-0.3,5-1.1,6.5-5.9,4.2c-1.4-0.7-2.9-1.2-4.5-1.3c-1,0-1.7-0.8-1.7-1.8c0-0.2,0-0.4,0.1-0.6
			c0.6-2.5,2-4.7,4-6.2c2-1.6,4.9-1.3,6.6,0.7c0.5,0.6,0.9,1.4,1,2.2C353.4,136.6,353.4,137.6,353.6,138.3z"/><path fill="#040404" d="M364.2,191.7c3.6,6.6,6.2,13.7,7.7,21.1c0.2,0.9,0.3,1.8,0.3,2.8c0,0.7-0.3,1.3-1.1,1.3c-0.6,0-1-0.4-1.1-1
			c-0.2-0.9-0.3-1.8-0.5-2.7c-1.4-6.8-3.7-13.4-7-19.6l-3.8-6.1c-0.4-0.7-0.8-1.4,0.1-2s1.4,0.1,1.8,0.8L364.2,191.7z"/><path fill="#020305" d="M316.9,107.1c0,0.6-0.4,1-0.9,1c-0.1,0-0.2,0-0.4,0c-0.5-0.1-1-0.4-1.5-0.7c-1.1-0.8-2.1-1.6-3-2.5
			c-1.7-2-4.5-2.6-6.8-1.5c-2.3,1-4.6,2-6.9,3c-0.4,0.2-0.8,0.4-1.2,0.7c-0.7,0.3-1.5,0.6-1.9-0.3c-0.4-0.7,0.2-1.3,0.8-1.6
			c3.5-1.9,7-3.8,11-4.6c1.9-0.4,3.8,0.1,5.3,1.3c1.7,1.3,3.3,2.7,5,4.1C316.6,106.1,316.9,106.6,316.9,107.1z"/><path fill="#050506" d="M368.6,181.9c3,2.4,6.2,4.4,8.8,7.1c0.6,0.6,1.1,1.2,1.6,1.9c0.3,0.4,0.2,0.9-0.1,1.3
			c-0.3,0.4-0.8,0.5-1.2,0.2c-0.7-0.5-1.3-1-1.9-1.6c-2.4-2.3-5-4.4-7.8-6.3c-2.1-1.5-4.4-2.7-6.8-3.6c-0.7-0.2-1.3-0.6-1.1-1.3
			s1-1,1.8-0.8c1.9,0.5,3.5,1.6,5.3,2.4C367.7,181.3,368.1,181.6,368.6,181.9z"/><path fill="#030508" d="M341,111.5c2.1-0.1,4.1,1,5.1,2.8c0.6,0.9,1.5,1.7,2.5,2.2c0.7,0.4,1.3,0.9,0.8,1.8s-1.3,0.6-2,0.3
			c-1.2-0.4-2.3-1.3-3-2.4c-1.2-2.2-3.1-2.5-5.2-2.2c-1.3,0.3-2.5,0.6-3.7,1.1c-0.8,0.3-1.7,0.7-2.1-0.4c-0.3-0.9,0.5-1.3,1.2-1.6
			C336.5,112.1,338.7,111.6,341,111.5z"/><path fill="#050607" d="M366.6,186c0.9,1.8,2.5,2.9,3.6,4.5c0.7,1.1,1.6,2.1,2.2,3.2c0.5,0.8,1.6,1.8,0.4,2.6s-1.8-0.5-2.3-1.3
			c-1.4-2.1-3-4.2-4.8-6.1c-1.2-1.4-2.6-2.7-4-3.9c-0.5-0.4-1-1-0.4-1.7s1.4-0.5,1.9,0.1C364.3,184.5,365.2,185.6,366.6,186z"/><path fill="#030508" d="M346.4,127.1c1.4,0.1,2.8-0.1,4.1,0.6c0.6,0.3,1.1,0.8,0.8,1.6c-0.2,0.5-0.9,0.8-1.4,0.6
			c-0.9-0.3-1.8-0.4-2.7-0.4c-2.3-0.3-4.7,0.3-6.6,1.6c-0.6,0.4-1.3,0.6-1.7,0s-0.1-1.4,0.6-1.9C341.3,127.7,343.9,127,346.4,127.1z
			"/><path fill="#04070b" d="M300,124.6c-0.3,0-0.5,0.1-0.8,0.1c-0.8,0.2-1.8,0.4-1.9-0.8c-0.1-0.9,0.7-1.2,1.4-1.4
			c2.7-0.5,5.4,0.2,7.5,1.9c0.6,0.3,0.8,1.1,0.4,1.6c0,0,0,0,0,0.1c-0.4,0.7-1.1,0.5-1.7,0.1C303.5,125.2,301.8,124.7,300,124.6z"/><path fill="#fff" d="M359.8 376.9c0 12.6-3.3 25-9.6 36-4.3 7.4-8.6 14.8-13.5 21.8-1.8 2.5-3.4 5.1-4.8 7.9-.7 1.6-2.1 2.9-3.7 3.6-7.8 3.4-15.8 6.1-24 8-3.2.7-4.3.1-5.8-2.9-1.1-2.2-2.1-4.3-3.2-6.5-4.1-8.6-9.7-16.4-16.4-23.1-7.4-7.3-14.6-14.6-21.5-22.4-5.1-5.8-9.3-12.1-11-19.8-.8-3.6-1.5-7.3-2.3-10.9-.2-1.1.4-1.3 1.1-1.6 2.1-.8 4.2-1.6 6.2-2.4.6-.2 1.2-.5 1.7-.9.4-.2.6-.8.4-1.2-.2-.4-.6-.7-1.1-.7-.9 0-1.8.3-2.7.7-4.7 1.7-9.3 4-14.2 5.1-11.5 2.6-22.5 1.6-32.7-5-9.1-5.9-18.1-12-28-16.7-9.1-4.4-18.9-7-29-7.6-4.5-.3-8.9-.6-13.4-.9-2.4-.2-2.6-.4-2.7-2.6-.3-4.4-.4-8.7-.7-13.1-.3-2.3.8-4.5 2.8-5.6 2.7-1.6 4.8-4.2 6.7-6.7 4-5.4 7.5-11.1 10.6-17 3.5-6.6 7.1-13.3 11.7-19.3 3.6-4.7 7.7-9 12.3-12.6 5.3-4 11.6-6.5 18.2-7.1 6.6-.8 5.1-.8 9.1 3.8 2.1 2.4 3.8 5 5.7 7.6 2.7 3.5 5.7 6.9 8.8 10 2.7 3.1 6.9 4.4 10.9 3.6 1.7-.3 3.5-.3 5.3-.5.9-.2 1.8.2 2.2 1 4.9 8.5 11.9 14.9 19.5 20.9 9.3 7.3 19.5 13.3 29.6 19.5 4.3 2.6 8.7 5 12.9 7.7s8.8 3.4 13.6 3.4c8.5.1 16.9-.2 25.4-.9 2.7-.2 2.6-.2 3.4 2.3 1.1 3.4 1.9 7 2.2 10.6.2 3.7 2.2 7.1 5.4 9 3.6 2.5 6.8 5.5 10.3 8.1 1.8 1.2 2.9 3.2 3 5.3C359.4 368.9 359.7 372.9 359.8 376.9zM220.4 125.8c1 2 1 4.1 2.1 5.8.4.7-.1 1-.5 1.4-14.3 11.6-29.6 21.5-48.1 25.1-.7.1-1.6.9-2.3-.1-.7-1-1.1-2.2-1.1-3.4.1-.8.9-.8 1.6-.9 4.3-.8 8.3-2.6 12.4-4.2 4.2-1.7 8.2-3.9 11.9-6.6 6.3-4.5 13-8.3 19.1-13C217 128.5 218.6 127.2 220.4 125.8z"/><path fill="#fff" d="M357.1,357.6c-1.1-0.9-2.2-1.7-3.2-2.6c-1.9-1.7-4-3.3-6.2-4.8c-3.1-2-5.1-4.6-5.4-8.6
			c-0.3-3.6-1.1-7.2-2.3-10.6c-0.2-0.6-0.3-1.2-0.3-1.8l13.4-1.8C354,337.5,355.7,347.4,357.1,357.6z"/><path fill="#fefefe" d="M402.9 169.8c.7 2.5 1.4 4.9 2.1 7.3 3.2 10.9 6.1 21.9 8.2 33 .5 2.5.7 5 1.2 7.4.3.8-.1 1.7-.8 2.2-.8.6-1.6 1.2-2.7 2-1-3.7-2-7.2-2.9-10.7-2.9-11.6-5.7-23.3-9-34.8-.3-1-.7-1.9-1-2.9-.6-1.9-.3-2.3 1.5-2.7C400.5 170.3 401.5 170.1 402.9 169.8zM231.6 275.7c-2.8.2-5.1.3-7.4.7-2.4.3-4.9-.5-6.6-2.4-2.7-2.5-5.2-5.3-7.6-8.1-2.9-3.6-5.4-7.6-8.5-11.1 1.2-.4 2 .3 2.8.6 3.1 1.4 6.2 3 9.2 4.6 4.2 2.3 8.4 4.8 13.3 5.6.5.1 1 .5 1.1 1C229.1 269.5 230.3 272.4 231.6 275.7zM298.3 278.9c-.2 1.4-.3 2.3-.4 3.1-.5 3.6-1.6 4.3-5.1 4.1s-6.8-.9-10.2-1.3c-.9 0-1.7-.7-1.8-1.7 0 0 0 0 0 0-.3-2.2-.2-4.5.3-6.6.2-1 .8-1.3 1.8-1.1 4.5.7 9 1.3 13.5 1.9C297.9 277.5 298.7 277.9 298.3 278.9zM282.6 272.8c.9-3.1 2.1-6.2 3.5-9.2.3-.7.9-.6 1.4-.6 3.6.6 7.1 1.1 10.7 1.7.5 0 .8.4.8.9 0 0 0 0 0 0-.2 2.8-.4 5.6-.6 8.3-.1.8-.7.8-1.3.7L282.6 272.8z"/><path fill="#fff" d="M287.5 260.5c.6-2.5 1.8-4.5 2.6-6.6.3-.7.8-.9 1.6-.8 2.3.3 4.6.7 6.9.9 1.2.1 1.6.6 1.5 1.8-.2 1.7-.4 3.5-.6 5.3-.1 1-.6 1.1-1.5 1C294.6 261.8 291.2 261.2 287.5 260.5zM291.7 250.6c.9-2.5 2-5 3.2-7.5.2-.4.4-.8 1-.9 1.7 0 3.3.2 4.9.6.6.1.5.7.5 1.1-.2 2.2-.4 4.4-.6 6.6-.1.9-.6 1-1.4.9C296.8 251.3 294.3 251 291.7 250.6zM281.6 287.1l10.6 1.6c-2.3 2.4-4.8 4.7-7.5 6.7C283.3 292.9 282.3 290 281.6 287.1zM296.6 239.8c1.1-3.4 3-6.2 4.5-9.1.1-.2.3-.5.6-.4.3.1.6.3.9.6.1.2.2.5.1.8-.5 2.8-.2 5.7-1.1 8.7L296.6 239.8z"/><path fill="#4b8ee2" d="M263.8,174.1c0.5-0.4,0.5,0,0.5,0.3L263.8,174.1z"/><path fill="#224066" d="M362.1 465.9c.1.1.1.2.1.4-.8-.2-1.7-.2-2.4-.9v-.6C360.5 465.2 361.6 465 362.1 465.9zM362.6 466.4c.5-.1.9.1 1.2.5C363.4 467 362.9 466.8 362.6 466.4zM365.5 465.9c-.2.3-.7.4-1 .2-.1 0-.1-.1-.2-.2H365.5z"/><path fill="#0a0a0a" d="M341,252.1c0.6,0.1,1.1,0.5,1.3,1c1.9,3.3,3.2,6.9,3.9,10.6c0.2,0.6-0.1,1.3-0.7,1.5c0,0-0.1,0-0.1,0
			c-0.8,0.2-1.2-0.3-1.4-1s-0.3-1.3-0.5-1.9c-0.7-2.9-1.7-5.7-3.2-8.2c-0.3-0.5-0.6-1.2,0-1.8C340.6,252.2,340.8,252.1,341,252.1z"/><path fill="#0c0c0c" d="M242.4,232.8c-1.1,0.1-2.2-0.1-3.3-0.4c-0.5-0.2-1-0.5-1-1.2c0.1-0.9,0.8-1,1.4-0.9c2.3,0.4,4.6,0.3,6.9-0.4
			c0.9-0.3,1.7-0.6,2.6-0.9c0.6-0.3,1.3-0.1,1.6,0.5c0,0,0,0,0,0c0.3,0.8-0.2,1.3-0.8,1.5C247.5,232.3,245,232.9,242.4,232.8z"/><path fill="#38a1fc" d="M312,149.4c2.6-2.1,5.6-3.6,8.8-4.7c0.7-0.2,1.5-0.1,2.1,0.3c8.4,3.4,14.4,9.1,17.6,17.6
			c0.6,1.6,1,3.4,2.1,4.8c0.5,0.7,0.5,1.6,0.1,2.4c-0.3,0.9-0.7,1.7-1,2.6c-0.3,0.6-0.5,1.3,0.3,1.7c0.9,0.5,1.4-0.1,1.8-0.8
			c0.6-1.1,1-2.2,1.3-3.4c0.1-1,0.8-1.9,1.8-2.1c2.8-0.8,5-2.9,7.4-4.3c0.9,0.4,0.6,1.1,0.6,1.7c0.1,2.5,0.1,5-0.2,7.5
			c-0.4,3.8-2.2,7.4-5,10.1c-1.4,1.5-3.3,2.5-5.3,2.9c-1.1,0.2-1.9,0.2-1.9-1.1c0-0.3-0.1-0.6-0.2-0.8c-1.3-4.6-4.1-6.8-9-6.8
			c-2.4,0-4.8,0.1-7.2,0.4c-5.8,0.8-11.4,0.4-16-3.6c-0.3-0.3-0.8-0.5-0.9-1.2c1.9-1.2,4-2.1,6.3-2.6c2.5-0.7,5.1-1.2,7.6-1.9
			c0.6-0.1,1.3-0.3,1.9-0.5c0.4-0.1,0.6-0.5,0.6-0.9c0-0.5-0.4-0.9-0.9-1c-0.5-0.1-0.9,0-1.4,0.1c-4.8,0.9-9.7,1.9-14.2,4
			c-2.2,1-2.2,1-3.6-0.8c-0.3-0.4-0.5-0.7-0.9-1.1c0.7-1,1.8-1,2.7-1.2c3.2-0.8,6.5-1.5,9.8-2.3c0.5-0.1,0.9-0.1,1.4-0.3
			c0.6-0.2,1.2-0.6,1-1.4c-0.2-0.7-0.8-0.8-1.3-0.7c-0.6,0-1.1,0.1-1.7,0.2c-4.1,0.7-8.2,1.7-12.2,2.8c-1,0.5-2.3,0.2-2.8-0.9
			c-0.7-1.1-1.8-1.9-2.3-3.1c0.5-0.6,1.2-0.6,1.8-0.7c5.3-1,10.7-1.2,16.1-0.6c0.6,0.1,1.3,0.1,2,0.1c0.5,0,1-0.1,1.1-0.7
			c0.2-0.6-0.2-1.1-0.8-1.3c0,0,0,0,0,0c-0.5-0.1-1.1-0.2-1.6-0.3c-6.5-0.9-13-0.6-19.4,0.9c-1,0.4-2.2,0-2.7-1.1
			c0.4-0.6,1.1-0.5,1.6-0.7c3.5-1,6.8-2.5,9.9-4.4c1.1-0.8,2.5-0.9,3.6-0.4c5.4,2,10.6,4,14.7,8.3c0.5,0.5,1,0.9,1.7,0.3
			c0.5-0.5,0.5-1.2,0-1.7c0,0,0,0,0,0c-0.7-0.8-1.4-1.5-2.2-2.1c-3.2-2.5-6.7-4.4-10.4-5.8C313.7,150.4,312.8,150.3,312,149.4z"/><path fill="#fff" d="M322.3,193.9c2.2-4.7,2.1-9.1,0.6-13.9c3.4-0.2,6.5-0.9,9.9-0.6c-0.1,3.8-1.2,7.4-3.1,10.6
			c-0.5,0.8-1.9,1.9-0.4,2.8c1.3,0.7,1.8-0.8,2.4-1.7c1.9-3,3-6.4,3.2-10c0.1-1.7,0.5-1.9,2-1.2c2.6,1.3,3.4,3.8,1.8,6.4
			c-1.9,3.1-4.5,5.4-7,7.8c-0.5,0.5-1.1,0.7-1.8,0.7C327.3,195,324.7,194.6,322.3,193.9z"/><path fill="#38a1fc" d="M290.8 163.2c.2-.2.3-.3.5-.4 5.3-1.8 5.5-1.8 8.7 3.4-.9.7-1.8 1.3-2.6 2-.5.3-.7 1-.4 1.5.4.7 1 .7 1.7.3l.5-.3c2.7-1.4 3.8-1.1 5.2 1.6.3.5.3.9-.1 1.2-2 1.5-3.9 3.1-5.9 4.6-.3-.3-.4-.4-.5-.5C295.7 171.9 293.3 167.5 290.8 163.2zM293.8 159.3c-5.6 2.1-4.5 1.8-7.1-1.6C289.3 157.5 291.7 156.8 293.8 159.3z"/><path fill="#fff" d="M290 137.1c3.7-3.3 6.4-7.4 12.5-6.5-2.2 1.9-3.3 3.8-3.2 6.3.1 1-.7 1-1.3 1C295.3 137.9 292.6 137.6 290 137.1zM347 134.5c-1 .8-1.8 1.8-2.5 2.9-.3.5-.8 1.2.2 1.5.7.2 1.5.5 1.7-.7.1-1.2.8-2.3 1.7-3.1.5-.3 1-.4 1.2-1.1C348.5 133.7 347.6 133.9 347 134.5z"/><path fill="#010100" d="M111.8 255c.3.5.6.9.8 1.3.5.8.7 1.7.7 2.7 0 .6.2.8.8.9 1.6.1 3.2.4 4.9.6.5.1 1.2 0 1.3.8 0 .5-.5.7-1.5.6-1.7-.2-3.3-.4-5-.6-.6-.2-1.1.1-1.4.6-1 1.5-2.4 2.6-4.1 3.3-2.4 1.1-5.1 1.6-7.8 1.3 0 .5.4.7.6 1 2 2.3 4 4.6 5.8 7.1.4.6.8 1.2 1.2 1.9.2.3.2.8-.2 1 0 0 0 0-.1 0-.4.3-.7 0-1-.4-2.5-4-5.7-7.3-8.7-10.8-.1-.1-.2-.3-.3-.4-.2-.2-.2-.6-.1-.9.2-.3.5-.4.8-.4.3 0 .6.1.9.2 3.3.7 6.8 0 9.7-1.8.8-.4 1.4-1 1.9-1.8-.2-.5-.6-.3-.9-.4-2.7-.2-5.5-.3-8.2-.5-.5 0-1.1.1-1.1-.6s.7-.7 1.1-.7c1.4 0 2.7.1 4.1.2 1.7.1 3.3.2 5 .3.7.1.8-.2.8-.8-.2-2.1-1.8-3.9-3.8-4.3-2.8-.4-5.7-.6-8.6-.9-1.9-.2-3.8-.2-5.7-.3-.3 0-.5 0-.8-.1-.2 0-.4-.2-.4-.5 0-.3.1-.5.4-.6.3-.1.7-.1 1-.1 7.5.2 15.1 1 22.5 2.2 1 .1 1.4.4 1.2.9-.2.8-.9.6-1.4.5C114.9 255.5 113.4 255.1 111.8 255zM208.4 24c.3.5.6.9.8 1.3.5.8.7 1.7.7 2.7 0 .6.2.8.8.9 1.6.1 3.3.4 4.9.6.5.1 1.2 0 1.3.8 0 .5-.5.7-1.5.5-1.7-.2-3.3-.4-5-.6-.6-.2-1.1.1-1.4.6-1 1.5-2.4 2.6-4.1 3.3-2.4 1.1-5.1 1.6-7.8 1.3 0 .5.4.7.6 1 2 2.3 4 4.6 5.8 7.1.4.6.8 1.2 1.2 1.9.2.3.1.8-.2 1 0 0 0 0 0 0-.4.3-.8 0-1-.4-2.5-3.9-5.7-7.3-8.7-10.8-.1-.1-.2-.3-.4-.4-.2-.2-.2-.6-.1-.9.2-.3.5-.4.8-.3.3 0 .6.1.9.2 3.3.7 6.8.1 9.7-1.7.8-.4 1.4-1 1.9-1.8-.2-.5-.6-.3-.9-.4-2.7-.2-5.5-.3-8.2-.5-.5 0-1.1.1-1.1-.6s.6-.7 1.1-.7c1.4 0 2.7.1 4.1.2 1.7.1 3.4.2 5 .3.7.1.9-.2.9-.8-.2-2.1-1.8-3.9-3.9-4.3-2.8-.4-5.7-.6-8.6-.9-1.9-.2-3.8-.2-5.7-.3-.3 0-.5 0-.8-.1-.2 0-.4-.2-.4-.5 0-.3.1-.5.4-.6.3-.1.7-.1 1-.1 7.5.2 15.1 1 22.5 2.2 1 .1 1.4.4 1.2.9-.2.8-.9.6-1.4.5C211.5 24.4 210 24.1 208.4 24zM429.2 67.2c.3.5.6.9.8 1.3.5.8.7 1.7.7 2.7 0 .6.2.8.8.9 1.6.2 3.2.4 4.9.6.5.1 1.2 0 1.3.8 0 .5-.5.7-1.5.6-1.7-.2-3.3-.4-5-.6-.6-.2-1.1.1-1.4.6-1 1.5-2.4 2.6-4.1 3.3-2.4 1.1-5.1 1.6-7.8 1.3 0 .5.4.7.6 1 2 2.3 4 4.6 5.8 7.1.4.6.8 1.2 1.2 1.9.2.3.2.8-.2 1 0 0 0 0-.1 0-.5.3-.7 0-1-.4-2.5-3.9-5.7-7.3-8.7-10.8-.1-.1-.2-.3-.4-.4-.2-.2-.2-.6-.1-.9.2-.3.5-.4.8-.3.3 0 .6.1.9.2 3.3.7 6.8 0 9.6-1.8.8-.4 1.4-1 1.9-1.8-.2-.5-.6-.3-.9-.4-2.7-.2-5.5-.3-8.2-.5-.5 0-1.1.1-1.1-.6s.6-.7 1.1-.7c1.4 0 2.7.1 4.1.2 1.7.1 3.4.2 5 .3.7.1.9-.2.9-.8-.2-2.1-1.8-3.9-3.9-4.3-2.8-.4-5.7-.7-8.5-.9-1.9-.2-3.8-.2-5.7-.3-.3 0-.5 0-.8-.1-.2 0-.4-.2-.4-.5 0-.3.1-.5.4-.6.3-.1.7-.1 1-.1 7.6.2 15.1 1 22.6 2.2 1 .1 1.4.4 1.2.9-.2.8-.9.6-1.4.5C432.3 67.5 430.7 67.3 429.2 67.2zM413.2 344.4c.3.5.6.9.8 1.3.5.8.7 1.7.7 2.7 0 .6.2.8.8.9 1.6.1 3.2.4 4.9.6.5.1 1.2 0 1.3.8 0 .5-.5.7-1.5.6-1.7-.2-3.3-.4-5-.6-.6-.1-1.1.1-1.4.6-1 1.5-2.4 2.6-4.1 3.3-2.4 1.1-5.1 1.6-7.8 1.3 0 .5.4.7.6 1 2 2.3 4 4.6 5.8 7.1.4.6.8 1.2 1.2 1.9.2.3.1.8-.2 1 0 0 0 0 0 0-.5.3-.7 0-1-.4-2.5-3.9-5.7-7.3-8.7-10.8-.1-.1-.2-.3-.4-.4-.2-.2-.2-.6-.1-.9.2-.2.5-.3.8-.2.3 0 .6.1.9.2 3.3.7 6.8.1 9.6-1.8.8-.4 1.4-1 1.9-1.8-.2-.5-.6-.3-.9-.4-2.7-.2-5.5-.3-8.2-.5-.5 0-1.1.1-1.1-.6s.6-.7 1.1-.7c1.4 0 2.7.1 4.1.2 1.7.1 3.4.2 5 .3.7 0 .9-.2.9-.8-.2-2.1-1.8-3.9-3.9-4.3-2.8-.4-5.7-.6-8.6-.9-1.9-.2-3.8-.2-5.7-.3-.3 0-.5 0-.8-.1-.2 0-.4-.2-.4-.5 0-.3.1-.5.4-.6.3-.1.7-.1 1-.1 7.6.2 15.1.9 22.6 2.2 1 .1 1.4.4 1.2.9-.2.8-.9.6-1.4.5C416.3 344.7 414.8 344.5 413.2 344.4z"/></svg>