<svg xmlns="http://www.w3.org/2000/svg" width="1640.931" height="796.771" viewBox="0 0 1640.931 796.771"><g transform="translate(-139.536 -142.543)"><g transform="translate(357.879 31.513)"><g transform="translate(-1039.228 -25)"><path d="M191.58,235.58a10.24,10.24,0,0,0-.67-5.18c-.54-1.27.48-2.42,1.63-1.79,3.67,2,7.19.78,10.76-.13a9.75,9.75,0,0,1,2-.42,1.59,1.59,0,0,1,1.7,2.14,17,17,0,0,1-.84,2.1,14.18,14.18,0,0,0-1.12,8.12,2.26,2.26,0,0,1-.5,2.33c-.8.71-1.56.22-2.3-.19-1.85-1-3.74-.66-5.64-.21-.87,1-2.1,1.09-3.27,1.35-3.23-.23-3.66-1-2.74-4.58C191.09,238,190.66,236.59,191.58,235.58Z" transform="translate(1028.246 -71.844)" fill="#020101"/><path d="M193.63,243.14a6.23,6.23,0,0,1,2.93-.79c-.3,1.64-.62,3.28-.88,4.92-.29,1.81-1,2.28-2.75,1.8a13.106,13.106,0,0,1-1.42-.51,6.92,6.92,0,0,0-4.45-.1c-.8.23-1.61.48-2.4.75a1.92,1.92,0,0,1-2.29-.47c-.63-.72-.29-1.45.12-2.09,1.8-2.8,1.7-5.91,1.47-9-.06-.91-.38-1.81-.48-2.72-.07-.64-.17-1.41.59-1.77a1.94,1.94,0,0,1,2.12.32,2.369,2.369,0,0,1,.38.33,5.65,5.65,0,0,0,5,1.79,6.15,6.15,0,0,1-.35,3.47c-4.27-.12-4.23-.12-4.12,4.38,0,1.11.29,1.48,1.43,1.33C190.35,244.53,192.42,245.23,193.63,243.14Z" transform="translate(1028.246 -71.844)" fill="#ff9443"/><path d="M193.63,243.14a1,1,0,0,0-.11.23c-.77,2.37-.79,2.46-3.13,1.94-1.37-.3-2.6.71-4.13.12a33,33,0,0,0,.34-6.3c0-.89.28-1.44,1.37-1.16s2.31.29,3.26,1.08l-.39,1.66c-.44,1.88-.07,2.38,1.81,2.44C193,243.16,193.3,243.14,193.63,243.14Z" transform="translate(1028.246 -71.844)" fill="#ffc69b"/><path d="M194.27,233.17c-.07-.58.3-.74.74-.69a22.931,22.931,0,0,0,8.13-1c-.45,2.42-1.2,4.61-1.1,6.92,0,.64-.44.79-1,.75-.75-.06-1.5-.08-2.25-.11.11-1.91-.09-3.33-2.71-3C193.89,236.33,194.6,234.31,194.27,233.17Z" transform="translate(1028.246 -71.844)" fill="#ffc69b"/><path d="M194.27,233.17a1.11,1.11,0,0,1,.32.91c-.1,1.27.57,1.62,1.7,1.46h.25c3.62-.13,3.76.09,2.24,3.49a13,13,0,0,1-3.72.55,8.161,8.161,0,0,1-.81-1C194.26,236.75,194.26,235,194.27,233.17Z" transform="translate(1028.246 -71.844)" fill="#ff9443"/><path d="M194.25,238.54c.65.05,1,.34.81,1C193.6,240.17,194.11,239.21,194.25,238.54Z" transform="translate(1028.246 -71.844)" fill="#ef929c"/></g><g transform="translate(-1167.361 -25.65)"><path d="M292.41,270.4a12.18,12.18,0,0,1,4-.2,7.46,7.46,0,1,1-7.63,11.48,19.894,19.894,0,0,1-1-1.73c-.85-1.09-.7-2.37-.65-3.62a8.25,8.25,0,0,1,1.73-4,5.34,5.34,0,0,1,3.55-1.93Z" transform="translate(1028.246 -71.844)" fill="#020101"/><path d="M287.63,276.09c0,1.29.08,2.57.13,3.86a5,5,0,0,1-3.59-4.63,5.1,5.1,0,0,1,2.64-5.24,4.78,4.78,0,0,1,5.6.32l-3.08,2.11C287.76,273.22,286.91,274.28,287.63,276.09Z" transform="translate(1028.246 -71.844)" fill="#ff9443"/><path d="M294.7,273c2.69.09,4.29,1.25,4.76,3.47a4.56,4.56,0,0,1-2.51,5.21c-2.05,1-3.9.45-5.67-1.61-.08-.16-.16-.39-.06-.46C293.55,278.05,294.09,275.53,294.7,273Z" transform="translate(1028.246 -71.844)" fill="#ffc69b"/><path d="M294.7,273c.71,3.25-.67,5.49-3.42,7.07a3.26,3.26,0,0,1-.86-3,20.13,20.13,0,0,0,1.87-3.12,2.62,2.62,0,0,1,2.41-.95Z" transform="translate(1028.246 -71.844)" fill="#ff9443"/><path d="M287.63,276.09c-1.23-.43-1.06-1.44-.7-2.24s1.06-1.87,2.4-1.33A13.47,13.47,0,0,0,287.63,276.09Z" transform="translate(1028.246 -71.844)" fill="#ffc69b"/><path d="M292.29,274c-.05,1.38-.22,2.7-1.87,3.12a3.18,3.18,0,0,1,1.87-3.12Z" transform="translate(1028.246 -71.844)" fill="#ffc69b"/></g><g transform="translate(-24.422 -59)"><path d="M21.57,91.32l.11.12.15-.07a.81.81,0,0,1,.71.52h0a.78.78,0,0,1,.5.56h0a4.09,4.09,0,0,1,1.07,1.5h0a3.53,3.53,0,0,1,1,1.6h0c.49.17.38.68.57,1h0c.43.23.36.7.5,1.07h0c.67.31.17,1.09.6,1.5h0c.52.39.11,1.1.52,1.54h0c.51.42.13,1.11.5,1.57h0c.66.55,0,1.45.54,2h0c.61.58,0,1.46.51,2.07h0c.51.44.19,1.11.45,1.62h0c.49.17.38.68.56,1h0a32.419,32.419,0,0,0,2.55,2.56h0c.27,0,.41.25.57.42h0c.24.3.78.15.9.62l.09-.11-.1.1c.3,0,.43.21.6.4h0c.24.29.79.14.9.62l.09-.1-.1.09c.31,0,.46.2.58.45h0a1.08,1.08,0,0,1,.55.48h0a2.21,2.21,0,0,1,.52.49h0a5.781,5.781,0,0,1,.49.5h0a1.47,1.47,0,0,1,.47.55h0c.44,2.47.28,2.68-1.88,2.39h0a.88.88,0,0,1-.57-.46h0a1.22,1.22,0,0,1-.51-.52h0a1.28,1.28,0,0,1-.52-.51h0a13.079,13.079,0,0,1-2-1.53h0a5.49,5.49,0,0,1-1.5-1h0a6.29,6.29,0,0,1-2-1.56h0a.61.61,0,0,1-.53-.52h0a.55.55,0,0,1-.49-.56l-.08.1.1-.08a2.52,2.52,0,0,1-1.06-1.49h0c-.45-.21-.36-.7-.54-1h0a15.8,15.8,0,0,1-1.07-4.06h0c-.62-.58,0-1.45-.5-2.07h0c-.54-.42-.19-1.11-.47-1.6h0c-.65-.37-.23-1.09-.52-1.58h0c-.68-.31-.19-1.09-.6-1.5h0c-.38-.25-.3-.72-.51-1h0c-.4-.22-.29-.71-.56-1h0a5.7,5.7,0,0,1-1-1.58h0a4.88,4.88,0,0,1-1.07-1.51h0c-.39-.49-.52-1,.07-1.42v.05a.56.56,0,0,1,.55-.51l-.1-.07.08.09C20.91,90.93,21.23,91,21.57,91.32Z" transform="translate(118.246 80.156)" fill="#030303"/><path d="M52.34,118.73a.57.57,0,0,0,.58.44,4.62,4.62,0,0,0,2,1.59.54.54,0,0,0,.55.45,20.15,20.15,0,0,0,3.45,3.14q.505.495,1,1A11,11,0,0,0,62,127.8c.09.23.17.46.25.68.67,1.89.49,2.14-1.62,2.21a.58.58,0,0,0-.52-.48.55.55,0,0,0-.46-.54,26.62,26.62,0,0,0-6.56-6.62.55.55,0,0,0-.55-.45.56.56,0,0,0-.55-.47,4.07,4.07,0,0,0-2-1.56.57.57,0,0,0-.52-.49,3.17,3.17,0,0,1,0-1.88C50.57,117.68,51.43,118.32,52.34,118.73Z" transform="translate(118.246 80.156)" fill="#040404"/><path d="M56,102a.58.58,0,0,0,.47.53,1.07,1.07,0,0,0,.56,1,2.67,2.67,0,0,0,.9,1.62,1.08,1.08,0,0,0,.55,1q.544,1,1.08,2a2.57,2.57,0,0,0,.88,1.63,1.11,1.11,0,0,0,.54,1,1.06,1.06,0,0,0,.54,1,1,1,0,0,0,.54,1,1.05,1.05,0,0,0,.53,1c.25,1.33,1.53,2.41,1,3.94-1.32.68-2.07-.18-2.81-1a1.12,1.12,0,0,0-.56-1,1,1,0,0,0-.54-1q-.5-1-1-2a11.64,11.64,0,0,0-1.91-3.64,1.11,1.11,0,0,0-.53-1,1.06,1.06,0,0,0-.53-1,145.9,145.9,0,0,0-1.07-2c-.23-1-.93-1.86-.43-2.92A3.05,3.05,0,0,1,56,102Z" transform="translate(118.246 80.156)" fill="#050404"/><path d="M343.151,149.921a1.09,1.09,0,0,1,1.27-1.16,3.74,3.74,0,0,1,2,1,15.44,15.44,0,0,1,6.44,11c.16,1.17.27,2.34.5,3.5a14.43,14.43,0,0,0,6.32,9.66c2.25,1.48,4.46,3,6.64,4.61a12.4,12.4,0,0,1,4,4.81,6.08,6.08,0,0,1,.53,1.93,1.161,1.161,0,0,1-2.14.64c-.3-.5-.45-1.09-.73-1.61a11.51,11.51,0,0,0-3.68-4.09c-1.87-1.3-3.74-2.6-5.67-3.79-5.08-3.1-7.64-7.75-8.22-13.51-.48-4.68-2-8.66-6.12-11.34a2.06,2.06,0,0,1-1.14-1.65Z" transform="translate(-210 21.284)" fill="#f38704"/></g></g><g transform="translate(-57.044 397.459)"><g transform="matrix(-0.921, 0.391, -0.391, -0.921, 1801.324, 533.79)"><path d="M12.24,17.711a8.04,8.04,0,0,1-10.9-2.6c-1.8-2.8-1.9-7,.4-9.6,0-.2-.1-.3-.1-.5,0-2.6,2.3-5.2,5-5,4.2.3,7.9,2.5,9.5,6.4A9.126,9.126,0,0,1,12.24,17.711Z" transform="translate(0 0)" fill="#ff9443"/><path d="M20.879,95.3c.9-.4-6.8-20.9-12.4-47.2C2.779,21.8,1.379-.1.379,0c-.4,0-.6,5.5,0,14.4.3,4.4.8,9.7,1.6,15.5s1.9,12.2,3.3,18.8,3.1,12.9,4.7,18.5c1.7,5.6,3.4,10.7,4.9,14.8C18.079,90.5,20.479,95.5,20.879,95.3Z" transform="translate(5.961 19.91)" stroke="#000" stroke-miterlimit="10" stroke-width="1"/></g><g transform="translate(1739.816 544.305) rotate(-120)"><path d="M45.612,10a82.354,82.354,0,0,1-28.2,4.4c-7-.2-16.8-.6-17.4-9.6-.4-6.4,9.6-6.4,10,0-.1-1.7,5-.5,6.5-.5a69.134,69.134,0,0,0,9.1-.2A75.227,75.227,0,0,0,43.012.3C49.112-1.7,51.712,8,45.612,10Z" transform="translate(2.106 9.129)" fill="#ff9443"/><path d="M.418.006c-.4.1-.6,1.5-.2,3.6a30.272,30.272,0,0,0,2.8,7.9,27.759,27.759,0,0,0,5.1,6.7c1.6,1.5,2.8,2.1,3.1,1.8.7-.7-2.4-4.6-5.3-10S1.318-.194.418.006Z" transform="translate(0 6.323)" stroke="#000" stroke-miterlimit="10" stroke-width="1"/><path d="M56.1,14.139c-.2-.5-3.1.4-7.7,1.4a36.962,36.962,0,0,1-3.8.7c-1.4.3-2.9.4-4.4.7a81.162,81.162,0,0,1-10.2.6,80.4,80.4,0,0,1-10.2-.7c-1.6-.2-3-.4-4.4-.7a31.424,31.424,0,0,1-3.8-.8c-4.7-1-7.6-1.9-7.7-1.5-.2.4,2.4,2,7.1,3.7q1.8.6,3.9,1.2c1.4.4,2.9.7,4.5,1a68.191,68.191,0,0,0,10.6,1,68.713,68.713,0,0,0,10.6-.9c1.6-.3,3.1-.6,4.5-1a35.943,35.943,0,0,0,3.9-1.2C53.6,16.139,56.2,14.539,56.1,14.139ZM44.4,3.039c-.1-.9-10-1-22.2-1.8C10,.539.1-.561,0,.339c-.2.9,9.6,3.4,22,4.2C34.4,5.239,44.4,3.839,44.4,3.039Z" transform="translate(4.115 9.99)" stroke="#000" stroke-miterlimit="10" stroke-width="1"/><ellipse cx="12.5" cy="1.6" rx="12.5" ry="1.6" transform="translate(56.393 24.415) rotate(-111.672)" stroke="#000" stroke-miterlimit="10" stroke-width="1"/></g><path d="M142.33,94.74a.44.44,0,0,1,0-.59c-.5-1.39.18-2.89-.4-4.27l-.08-.09.06-.1c-.36-.7.08-1.54-.37-2.24l-.1-.1.06-.14c-.32-.55.05-1.24-.36-1.78l-.1-.09.05-.12c-.22-.44,0-1-.34-1.41l-.11-.1.05-.13c-.24-.43,0-1-.38-1.37h0c-.35-.35,0-.9-.39-1.24l-.09-.07v-.12a2.88,2.88,0,0,0-.35-1h0c-.38-.31,0-.89-.43-1.19h0c-.36-.31,0-.93-.47-1.17-.11-.29-.07-.64-.37-.85s-.11-.61-.38-.82h0c-.21-.23-.14-.6-.39-.81h0c-.22-.22-.14-.6-.41-.8h0c-.21-.23-.13-.61-.43-.79s-.08-.63-.45-.76c0-.23-.17-.34-.3-.48h0c-.24-.19-.14-.6-.46-.74a1.67,1.67,0,0,0-.31-.44h0c-.26-.16-.14-.58-.48-.69h0c0-.22-.19-.33-.34-.44h0l-.34-.41v-.06c-.27-.14-.13-.61-.52-.66a.432.432,0,0,0-.36-.44h0a.6.6,0,0,0-.38-.42.77.77,0,0,0-.39-.42,1,1,0,0,0-.4-.41h0a.88.88,0,0,0-.41-.4h0a.72.72,0,0,0-.41-.39h0a.54.54,0,0,0-.43-.38h0a.46.46,0,0,0-.43-.36l.07-.09-.08.08c-.05-.37-.5-.23-.63-.5l-.09-.06-.39-.32h0a.87.87,0,0,0-.45-.33h0c-.12-.34-.53-.22-.71-.46h-.06a.83.83,0,0,0-.44-.3h0c-.13-.36-.52-.25-.75-.43h0c-.18-.3-.55-.22-.79-.4h0c-.23-.3-.6-.26-.9-.39a.19.19,0,0,1-.29-.09c-.24-.21-.59-.15-.86-.32a.25.25,0,0,1-.35-.09c-.35-.3-.86,0-1.21-.33l-.41-.06a17.37,17.37,0,0,0-5.24,0l-.7.1c-.41.25-.94,0-1.33.34l-.1.12-.14-.06a2.79,2.79,0,0,0-.94.34h-.09c-.2.21-.51.18-.74.33a.24.24,0,0,1-.33.11c-.46.15-.92.35-1.38,0,0-.21-.19-.32-.31-.47h0c-.25-.17-.14-.59-.47-.72a1.39,1.39,0,0,0-.31-.45h0c-.25-.17-.14-.59-.48-.7h0a.6.6,0,0,0-.34-.46h0l-.34-.42v-.06c-.26-.14-.13-.6-.51-.66a.45.45,0,0,0-.35-.45.82.82,0,0,0-.37-.43h0a3.418,3.418,0,0,0-.36-.4h0A14.94,14.94,0,0,0,104,54.28l-.08-.07a1.3,1.3,0,0,1-.34-.32l-.07-.06-.38-.34h0a1.82,1.82,0,0,0-.42-.36h0c-.1-.19-.21-.35-.44-.35v-.1l-.06.09c-.08-.34-.51-.21-.65-.49l-.1-.06-.39-.32h0a.85.85,0,0,0-.44-.33h0c-.11-.35-.53-.22-.7-.47h-.06a1,1,0,0,0-.44-.31h0c-.12-.33-.53-.22-.72-.45h0a.77.77,0,0,0-.55-.34h-.15l-.09-.13a2.23,2.23,0,0,0-.44-.29h0c-.16-.33-.54-.23-.77-.42h0c-.18-.29-.55-.21-.79-.4h0c-.21-.3-.58-.24-.86-.39a.24.24,0,0,1-.33-.11c-.23-.15-.54-.12-.74-.33H93.9c-.24-.22-.58-.19-.86-.33a.23.23,0,0,1-.33-.09c-.26-.2-.6-.16-.87-.32a.23.23,0,0,1-.34-.08c-.33-.32-.85,0-1.18-.35l-.44-.08c-.36-.28-.86,0-1.2-.31l-.42-.08c-.42-.27-.94-.09-1.37-.32a.66.66,0,0,1-.65-.08c-.52-.34-1.17,0-1.69-.32a.91.91,0,0,1-.74-.08c-.79-.41-1.69.08-2.47-.33a.94.94,0,0,1-.77-.06,43.58,43.58,0,0,0-8.47,0,1.9,1.9,0,0,1-1.15.1c-.65.37-1.45-.09-2.1.34a.21.21,0,0,1-.33.06c-.39.27-.91,0-1.28.34a.21.21,0,0,1-.32.07c-.28.14-.62.12-.89.3a.28.28,0,0,1-.36.1c-.26.16-.6.11-.84.34h-.09c-.2.22-.51.19-.74.34a.2.2,0,0,1-.3.11c-.28.15-.68.06-.85.43h0a1.07,1.07,0,0,0-.44.28l-.1.05c-.16.27-.55.15-.7.43-.5,1.23-.15,1.64,1.09,1.07A20.161,20.161,0,0,0,65,48.13h0a32.07,32.07,0,0,1,10.78-1.76,81,81,0,0,1,10.32,1h0a27.741,27.741,0,0,0,3.61.82h0c1.19.45,2.43.76,3.62,1.19h0c1.34.68,2.7,1.31,4,2h0a2.07,2.07,0,0,0,1.2.75h0a2,2,0,0,0,1.15.8h0c.26.43.75.57,1.13.85h0a1,1,0,0,0,.43.36h0a.54.54,0,0,0,.43.35h0c1.34,1.36,2.71,2.68,4,4.05l-.08.09.08-.08a.53.53,0,0,0,.36.44h0a5.8,5.8,0,0,0,1.23,1.59h0c0,.21.19.32.34.45h0c.22.19.1.63.49.7l-.12.08.13-.07a.562.562,0,0,0,.31.48h0c.22.21.1.64.49.73l-.12.07.12-.06a1.23,1.23,0,0,1-.05.94h0a1.46,1.46,0,0,0-.42.32h-.08c-.15.26-.58.13-.67.48l.32.1.05.09c-.24,0-.35.16-.44.35h0a1.64,1.64,0,0,0-.42.37h0a4.4,4.4,0,0,0-.39.35h0a5.26,5.26,0,0,0-1.58,1.57v.05c-.12.12-.23.25-.35.38h0a1.45,1.45,0,0,0-.37.41.61.61,0,0,0-.36.44h0c-.44.27-.58.77-.87,1.15h0c-.16.12-.32.24-.33.46h0c-.35.11-.25.53-.47.72h0c-.15.13-.32.24-.31.47h0c-.38.11-.29.52-.46.75s-.22.56-.44.78h0c-.26.2-.18.58-.41.79h0c-.25.21-.18.58-.39.81h0c-.25.22-.21.56-.36.83-.46.28-.09.87-.45,1.19h0c-.38.32,0,.88-.4,1.22h0c-.36.4-.14,1-.37,1.38l.05.13-.1.1c-.47.62,0,1.42-.37,2a8.67,8.67,0,0,0,0,4.38c.44.6-.18,1.45.45,2,.1.29.09.62.32.87h0c.41.26,0,.92.52,1.1h0a2.1,2.1,0,0,0,.77,1.24h0c0,.22.2.33.35.45h0a3.62,3.62,0,0,0,1.62,1.57h0a6.44,6.44,0,0,0,6,1.2h0c.35-.29.89,0,1.19-.39h0c.24-.18.6-.1.79-.38h0c.21-.2.62-.08.73-.45h0a.62.62,0,0,0,.45-.32h0a5.36,5.36,0,0,0,2-2h0c.18-.11.34-.23.35-.46.36-.1.24-.53.48-.72h0a3.23,3.23,0,0,0,.7-1.27h0c.54-.21.12-.85.49-1.14h0c.39-.32.06-.88.41-1.21h0c.44-.47,0-1.15.39-1.63a25.59,25.59,0,0,0,0-7.26l-.1-.13.06-.16c-.42-.65.13-1.49-.41-2.12h0c-.4-.49.09-1.19-.42-1.65h0c-.3-.37,0-.91-.37-1.25h0c-.36-.33,0-.89-.4-1.21h0c-.37-.32,0-.9-.44-1.19h0c-.17-.26-.13-.61-.35-.85h0c-.4-.27,0-.9-.49-1.13-.12-.28-.07-.64-.38-.83-.15-.26-.09-.63-.4-.81s-.09-.63-.41-.8c-.5-1.2.62-1.28,1.21-1.73h0c.34-.27.9.09,1.16-.4h0c.48-.33,1.16.14,1.59-.4h0a15.08,15.08,0,0,1,10.19,2h.05a2,2,0,0,0,1.17.79h0a5.69,5.69,0,0,0,1.56,1.24h0a.91.91,0,0,0,.42.38h0a.73.73,0,0,0,.41.38h0a.59.59,0,0,0,.41.39h0a.55.55,0,0,0,.39.39h0a.48.48,0,0,0,.38.42h0a.69.69,0,0,0,.37.43h0a6,6,0,0,0,1.26,1.57c0,.22.18.33.33.45h0a10.43,10.43,0,0,0,.8,1.2h0c.21.22.1.64.47.75a3.43,3.43,0,0,0,.73,1.27h0c.22.22.14.6.42.79s.13.61.4.81.14.6.39.82h0c.38.28-.05.92.5,1.13.07.31,0,.65.34.87h0c.33.33,0,.93.45,1.2.24.37-.08.93.42,1.21.21.39-.07.92.37,1.24h0c.28.38,0,.92.36,1.27l.09.08-.05.11c.22.46,0,1,.36,1.43l.11.1-.06.13c.31.56-.05,1.26.37,1.8l.09.09-.06.12c.39.82-.12,1.78.4,2.58.51,1.6-.22,3.3.39,4.9a5.73,5.73,0,0,1,0,2.82c-.59,1.63.08,3.36-.4,5l.07.14-.11.13c-.51.76.09,1.69-.39,2.46h0c-.52.6,0,1.42-.41,2h0c-.46.47,0,1.16-.4,1.64h0c-.38.39-.14,1-.38,1.37v.14l-.11.1c-.35.33,0,.88-.4,1.2h0c-.22.24-.21.57-.31.86-.51.26-.13.87-.46,1.19h0c-.29.22-.26.56-.36.85-.51.23-.1.86-.49,1.14h0c-.23.22-.16.58-.38.81h0c-.26.21-.19.58-.4.81h0c-.27.2-.19.57-.41.8h0c-.26.19-.17.57-.41.78h0a5.15,5.15,0,0,0-.74,1.26c-.33.14-.23.55-.46.76h0c-.15.13-.31.24-.3.47h0c-.37.1-.26.53-.48.73h0c-.15.12-.33.23-.33.46h0c-.35.09-.23.52-.49.68h0c-.12.13-.23.27-.34.41h0a1,1,0,0,0-.37.42,9.393,9.393,0,0,1-.81.82h0c-.25.16-.61.1-.82.36h0a.94.94,0,0,0-.37.44h0c-.28.26-.36.49.07.67.66.82,1.33.36,1.84-.12a10.07,10.07,0,0,0,2.43-2.65h0c.19-.1.36-.21.34-.46l.12.08-.12-.09c.39-.07.27-.51.5-.7h0c.14-.12.31-.23.31-.45h0c.35-.12.24-.53.46-.73h0a4.32,4.32,0,0,0,.76-1.25c.33-.15.24-.54.43-.78s.21-.57.42-.8h0c.27-.2.2-.58.41-.81h0c.26-.21.2-.57.39-.81a5.814,5.814,0,0,0,.38-.84c.31-.19.28-.53.36-.83h0c.53-.23.12-.86.47-1.16h0c.27-.23.25-.57.33-.87.52-.26.19-.82.42-1.19.49-.34.2-.94.44-1.37v-.11l.09-.08c.36-.36.08-.9.36-1.27h0c.52-.46,0-1.16.41-1.66h0c.59-.6,0-1.43.42-2.06h0c.56-.8,0-1.78.42-2.61l-.06-.1.08-.1c.58-1.38-.1-2.88.4-4.27a.44.44,0,0,1,0-.58A6.48,6.48,0,0,0,142.33,94.74ZM115.1,77.89c.14,1,.16,2,.23,3a16.19,16.19,0,0,1-1.32,6.7,10.91,10.91,0,0,1-3.27,4.3,6.17,6.17,0,0,1-9.21-1.28,10.67,10.67,0,0,1-1.93-7.27,24.67,24.67,0,0,1,9.78-17.69,5.28,5.28,0,0,1,.68-.44.49.49,0,0,1,.7.14,8.289,8.289,0,0,1,.49.88A36.35,36.35,0,0,1,115.1,77.89Z" transform="translate(1564.892 369.759)" fill="#020101"/></g><g transform="translate(37.459 -90.928)"><g transform="translate(-50)"><g transform="translate(-4451.792 857.298)"><path d="M430,88.2c-10-1.1-20.1-2.3-30.1-3.4-6.4-.7-6.3,9.3,0,10,10,1.1,20.1,2.3,30.1,3.4C436.3,98.9,436.3,88.9,430,88.2Z" transform="translate(4225.791 -430.542)" fill="#ff9443"/><path d="M439.1,74.9c.1.2-.7.8-2.3,1.6a34.979,34.979,0,0,1-7,2.6,44.777,44.777,0,0,1-11.1,1.4,38.545,38.545,0,0,1-6.6-.6c-1.1-.2-2.3-.4-3.5-.7a20.952,20.952,0,0,0-3.1-.6,3.323,3.323,0,0,0-2,.5,2.272,2.272,0,0,0-1.1,1.4c-.5,1.3-.3,3.2-.2,4.9a47.252,47.252,0,0,1,.4,5.3,10.837,10.837,0,0,1-1,5.1l-4.2,8.8,1.8-9.5a32.123,32.123,0,0,0,.4-9c-.2-2.2-.3-3.4-.1-3.5s.9,1.1,1.5,3.3a27.1,27.1,0,0,1,.7,9.6l-2.4-.7a12.165,12.165,0,0,0,.5-4c-.1-1.5-.3-3.2-.6-5a26.415,26.415,0,0,1-.2-2.9,9.914,9.914,0,0,1,.4-3.3,5.477,5.477,0,0,1,2.5-3.1,6.491,6.491,0,0,1,3.8-.9,19.821,19.821,0,0,1,3.8.7c1.1.3,2.1.5,3.2.7a45.275,45.275,0,0,0,6.2.7,48.279,48.279,0,0,0,10.5-.6c3-.5,5.4-1.1,7-1.5C438,74.9,439,74.7,439.1,74.9Z" transform="translate(4225.791 -430.542)" stroke="#000" stroke-miterlimit="10" stroke-width="1"/><ellipse cx="14.5" cy="1.6" rx="14.5" ry="1.6" transform="translate(4628.449 -334.394) rotate(4.552)" stroke="#000" stroke-miterlimit="10" stroke-width="1"/><ellipse cx="1.6" cy="8.7" rx="1.6" ry="8.7" transform="translate(4659.491 -357.442)" stroke="#000" stroke-miterlimit="10" stroke-width="1"/></g><g transform="translate(-6588.193 -1142.002)"><path d="M589,374.1c-.6-6.3-10.6-6.4-10,0a128.009,128.009,0,0,1-.8,33.3c-1,6.3,8.7,9,9.6,2.7A135.824,135.824,0,0,0,589,374.1Z" transform="translate(6168.4 1216.458)" fill="#ff9443"/><path d="M572.4,395.7c.2-.2,1,.3,1.9,1.7a10.476,10.476,0,0,1,1.4,6.5l-2.7-.2c-.2-3.2-.3-7.1-.3-11.4,0-10.9.7-19.8,1.6-19.8s1.6,8.9,1.6,19.8c0,4.2-.1,8.2-.3,11.4l-2.7-.2a11.678,11.678,0,0,0-.2-5.4C572.5,396.7,572.2,395.9,572.4,395.7Z" transform="translate(6168.4 1216.458)" stroke="#000" stroke-miterlimit="10" stroke-width="1"/><path d="M594.6,405.3c-.1.1-.8-.2-1.8-1.1a13.456,13.456,0,0,1-2.7-5,28.762,28.762,0,0,1-1-8.2c0-3.1.3-6.3,0-9.5a21.128,21.128,0,0,0-.8-4.5,16.677,16.677,0,0,0-.8-2c-.2-.3-.3-.6-.5-.9a3.038,3.038,0,0,1-.5-.7,9.129,9.129,0,0,0-6-3,6.682,6.682,0,0,0-4.4,1c-.2.2-.4.3-.6.5-.2.1-.3.3-.4.4a.914.914,0,0,1-.5.3q-.15,0,0-.6c.1-.2.1-.4.2-.6a9.211,9.211,0,0,1,.5-.8,7.225,7.225,0,0,1,5.4-2.4,10.973,10.973,0,0,1,8.1,3.3c2.4,2.6,3.4,6.3,3.7,9.9a62.7,62.7,0,0,1-.3,9.9,30.5,30.5,0,0,0,.3,7.6C593,402.9,594.9,404.9,594.6,405.3Z" transform="translate(6168.4 1216.458)" stroke="#000" stroke-miterlimit="10" stroke-width="1"/><ellipse cx="10.8" cy="1.6" rx="10.8" ry="1.6" transform="translate(6742.563 1624.524) rotate(-10.765)" stroke="#000" stroke-miterlimit="10" stroke-width="1"/></g><g transform="translate(-861.885 -95.544)"><path d="M252.8,205.4a8.385,8.385,0,0,0-12.9-2.8c-2.1,1.7-1.8,5.3,0,7.1a4.653,4.653,0,0,0,2.9,1.4c-.5.6-1,1.1-1.2,1.3-4.4,4.7,2.7,11.8,7.1,7.1C252.2,215.7,255.6,210.6,252.8,205.4Z" transform="translate(810.831 358.458)" fill="#ff9443"/><path d="M253.8,216.6c0-.1.2-.2.5-.3s.8-.2,1.4-.4a9.2,9.2,0,0,0,4.1-2.6,8.651,8.651,0,0,0,2.6-6.2,7.026,7.026,0,0,0-1.2-3.6,9.415,9.415,0,0,0-3.2-2.7,10.127,10.127,0,0,0-4.1-.9,6.214,6.214,0,0,0-3.6,1.2,8.573,8.573,0,0,0-3.2,5.9,9.679,9.679,0,0,0,.6,4.8,8.094,8.094,0,0,0,.6,1.3c.1.3.2.5.1.6s-.3,0-.6-.2a10.021,10.021,0,0,1-1.2-1.1,9.473,9.473,0,0,1-1.8-5.6,10.3,10.3,0,0,1,.8-4.1,9.55,9.55,0,0,1,8.1-6.1,13.3,13.3,0,0,1,5.8,1.1,11.906,11.906,0,0,1,4.5,3.8,9.719,9.719,0,0,1,1.6,5.4,10.7,10.7,0,0,1-1.3,4.8,12.358,12.358,0,0,1-2.7,3.2,9.084,9.084,0,0,1-5.5,2.1,6.267,6.267,0,0,1-1.6-.2C253.9,216.8,253.8,216.7,253.8,216.6Z" transform="translate(809.465 360.458)" stroke="#000" stroke-miterlimit="10" stroke-width="1"/></g></g><path d="M491,22.48a32.55,32.55,0,0,0-9.83.87,72,72,0,0,0-16.41,6.14A37.5,37.5,0,0,0,453,38.85a44.64,44.64,0,0,0-9.82,19,1.6,1.6,0,0,1-1,1.34,28.2,28.2,0,0,0-9,6.42,28.84,28.84,0,0,0-8.37,18.58,51.508,51.508,0,0,0,1.34,15.65,42.15,42.15,0,0,0,9.33,18.59,27.791,27.791,0,0,0,6.26,5.39c.43.27.87.73,1.44.25.3-.26.09-.63-.71-1.18a27.343,27.343,0,0,1-4.39-3.56,39.87,39.87,0,0,1-9.15-14.62,50.521,50.521,0,0,1-1.82-6.61,44.39,44.39,0,0,1-.63-16.68c1.6-9.28,6.92-15.88,15-20.46a1.37,1.37,0,0,1,1.17-.27v1.59a26.515,26.515,0,0,0,.44,6,27.941,27.941,0,0,0,4.39,10.56,12.25,12.25,0,0,0,4.09,3.85,6.3,6.3,0,0,0,5.65.37,10.49,10.49,0,0,0,6.76-7.51,14,14,0,0,0-3.12-13c-3.44-3.86-7.89-5.2-12.93-4.86-1.06.07-2.11.33-3.46.56.2-.85.34-1.5.52-2.13a43.86,43.86,0,0,1,8.95-16.37,36,36,0,0,1,11.29-9q3.51-1.78,7.17-3.25c6-2.38,12.14-4,18.67-3.77.57,0,1.26.23,1.61-.48C492.79,22.87,492.21,22.58,491,22.48ZM444.8,59.63c5.4-1.65,11.85-.28,15.41,4.22a12.7,12.7,0,0,1,2.78,8.6,9.4,9.4,0,0,1-4.5,8.55c-2.78,1.89-5.39,1.71-7.92-.5a13,13,0,0,1-2.47-2.91,26.55,26.55,0,0,1-4.18-16.12,6.509,6.509,0,0,1,.11-1,1,1,0,0,1,.75-.84Z" transform="translate(-300.108 324.086)" fill="#020101"/></g><g transform="translate(29.668 293.225)"><g transform="translate(-149.935 353.151)"><path d="M191.58,235.58a10.24,10.24,0,0,0-.67-5.18c-.54-1.27.48-2.42,1.63-1.79,3.67,2,7.19.78,10.76-.13a9.75,9.75,0,0,1,2-.42,1.59,1.59,0,0,1,1.7,2.14,17,17,0,0,1-.84,2.1,14.18,14.18,0,0,0-1.12,8.12,2.26,2.26,0,0,1-.5,2.33c-.8.71-1.56.22-2.3-.19-1.85-1-3.74-.66-5.64-.21-.87,1-2.1,1.09-3.27,1.35-3.23-.23-3.66-1-2.74-4.58C191.09,238,190.66,236.59,191.58,235.58Z" transform="translate(1028.246 -71.844)" fill="#020101"/><path d="M193.63,243.14a6.23,6.23,0,0,1,2.93-.79c-.3,1.64-.62,3.28-.88,4.92-.29,1.81-1,2.28-2.75,1.8a13.106,13.106,0,0,1-1.42-.51,6.92,6.92,0,0,0-4.45-.1c-.8.23-1.61.48-2.4.75a1.92,1.92,0,0,1-2.29-.47c-.63-.72-.29-1.45.12-2.09,1.8-2.8,1.7-5.91,1.47-9-.06-.91-.38-1.81-.48-2.72-.07-.64-.17-1.41.59-1.77a1.94,1.94,0,0,1,2.12.32,2.369,2.369,0,0,1,.38.33,5.65,5.65,0,0,0,5,1.79,6.15,6.15,0,0,1-.35,3.47c-4.27-.12-4.23-.12-4.12,4.38,0,1.11.29,1.48,1.43,1.33C190.35,244.53,192.42,245.23,193.63,243.14Z" transform="translate(1028.246 -71.844)" fill="#ff9443"/><path d="M193.63,243.14a1,1,0,0,0-.11.23c-.77,2.37-.79,2.46-3.13,1.94-1.37-.3-2.6.71-4.13.12a33,33,0,0,0,.34-6.3c0-.89.28-1.44,1.37-1.16s2.31.29,3.26,1.08l-.39,1.66c-.44,1.88-.07,2.38,1.81,2.44C193,243.16,193.3,243.14,193.63,243.14Z" transform="translate(1028.246 -71.844)" fill="#ffc69b"/><path d="M194.27,233.17c-.07-.58.3-.74.74-.69a22.931,22.931,0,0,0,8.13-1c-.45,2.42-1.2,4.61-1.1,6.92,0,.64-.44.79-1,.75-.75-.06-1.5-.08-2.25-.11.11-1.91-.09-3.33-2.71-3C193.89,236.33,194.6,234.31,194.27,233.17Z" transform="translate(1028.246 -71.844)" fill="#ffc69b"/><path d="M194.27,233.17a1.11,1.11,0,0,1,.32.91c-.1,1.27.57,1.62,1.7,1.46h.25c3.62-.13,3.76.09,2.24,3.49a13,13,0,0,1-3.72.55,8.161,8.161,0,0,1-.81-1C194.26,236.75,194.26,235,194.27,233.17Z" transform="translate(1028.246 -71.844)" fill="#ff9443"/><path d="M194.25,238.54c.65.05,1,.34.81,1C193.6,240.17,194.11,239.21,194.25,238.54Z" transform="translate(1028.246 -71.844)" fill="#ef929c"/></g><g transform="translate(-3411 882.335)"><path d="M954.1,37.2a82.355,82.355,0,0,0-28.2-4.4c-7,.2-16.8.6-17.4,9.6-.4,6.4,9.6,6.4,10,0-.1,1.7,5,.5,6.5.5a69.133,69.133,0,0,1,9.1.2,75.228,75.228,0,0,1,17.4,3.8C957.6,48.9,960.2,39.2,954.1,37.2Z" transform="translate(3602.4 -385.305)" fill="#ff9443"/><path d="M906.8,50c-.4-.1-.6-1.5-.2-3.6a30.271,30.271,0,0,1,2.8-7.9,27.759,27.759,0,0,1,5.1-6.7c1.6-1.5,2.8-2.1,3.1-1.8.7.7-2.4,4.6-5.3,10S907.7,50.2,906.8,50Z" transform="translate(3602.4 -385.305)" stroke="#000" stroke-miterlimit="10" stroke-width="1"/><path d="M966.6,32.2c-.2.5-3.1-.4-7.7-1.4a36.963,36.963,0,0,0-3.8-.7c-1.4-.3-2.9-.4-4.4-.7a80.359,80.359,0,0,0-20.4.1c-1.6.2-3,.4-4.4.7a31.425,31.425,0,0,0-3.8.8c-4.7,1-7.6,1.9-7.7,1.5-.2-.4,2.4-2,7.1-3.7q1.8-.6,3.9-1.2c1.4-.4,2.9-.7,4.5-1a59.614,59.614,0,0,1,21.2-.1c1.6.3,3.1.6,4.5,1a35.943,35.943,0,0,1,3.9,1.2C964.1,30.2,966.7,31.8,966.6,32.2ZM954.9,43.3c-.1.9-10,1-22.2,1.8-12.2.7-22.1,1.8-22.2.9-.2-.9,9.6-3.4,22-4.2C944.9,41.1,954.9,42.5,954.9,43.3Z" transform="translate(3602.4 -385.305)" stroke="#000" stroke-miterlimit="10" stroke-width="1"/><ellipse cx="12.5" cy="1.6" rx="12.5" ry="1.6" transform="translate(4568.149 -352.209) rotate(111.672)" stroke="#000" stroke-miterlimit="10" stroke-width="1"/></g><g transform="translate(-5616 254.932)"><path d="M190.47,42.28l-.06.14.11.12c.38.55.06,1.25.36,1.83l-.06.1.09.09c.44.49,0,1.17.37,1.68h0c.54.45,0,1.16.44,1.64h0c.41.33.11.88.39,1.26h0c.48.28.11.87.45,1.21h0c.29.22.25.57.36.86h0c.37.17.3.55.4.84l.08-.07-.09.06c.39.13.29.53.44.8h0c.33.14.23.55.46.76h0c.15.13.33.24.33.47l.07-.08-.08.07c.35.09.23.54.5.69v.06l.34.39h0a2.43,2.43,0,0,1,.38.41h0a1,1,0,0,1,.39.42h0a.84.84,0,0,1,.41.4h0a1,1,0,0,1,.41.39h0a3.46,3.46,0,0,1,.4.35h0c.34.33.85.44,1.12.86h0a1.09,1.09,0,0,1,.44.33h0c.18.23.61.11.7.48h0a.72.72,0,0,1,.45.31h0c.2.22.61.1.73.46h0a1,1,0,0,1,.45.3h.06c.18.24.58.13.73.43h0a2.421,2.421,0,0,1,.42.29l.12.06c.18.23.5.21.69.41h0c.2.22.6.11.74.44h0a1.19,1.19,0,0,1,.43.3h.09c.17.27.56.15.71.43h0a3.909,3.909,0,0,1,.41.3l.12.06c.17.23.5.22.69.43h0l.41.31.11.06c.13.28.55.16.67.46h0a1.3,1.3,0,0,1,.43.34h0c.34.33.88.41,1.09.89l.09-.09-.08.1a.44.44,0,0,1,.42.37.5.5,0,0,1,.42.4h0a.51.51,0,0,1,.4.41.44.44,0,0,1,.38.42.352.352,0,0,1,.38.42l.11-.09-.1.1c.5.19.56.75.91,1.07h0a2.791,2.791,0,0,1,.35.42h0a.67.67,0,0,1,.37.45h0c.43.28.56.78.87,1.15h0c.15.13.32.24.34.46h0c.34.11.22.54.49.7v.05a2.888,2.888,0,0,1,.33.45h0c.3.14.19.56.46.72v.06a1.62,1.62,0,0,1,.31.46h0c.33.15.23.56.46.76h0c.15.14.33.25.3.49l.08-.09-.09.08c.41.11.3.52.46.78h0c.34.15.25.55.44.79h0c.29.19.21.58.42.81h0c.28.2.21.57.41.82h0c.29.2.23.57.39.84h0c.32.2.27.56.38.86h0c.54.23.13.86.49,1.18h0c.42.29,0,.88.44,1.18h0c.36.32,0,.88.4,1.2h0c.36.34,0,.89.39,1.23h0c.37.38.12.94.37,1.35l-.05.15.11.11c.2.28.28.54-.12.72h0c-.34.49-.71.4-1.08,0h0c-.32-.19-.26-.56-.39-.84h0c-.5-.3-.17-.87-.42-1.25h0c-.51-.29-.17-.87-.42-1.24h0c-.51-.28-.16-.87-.43-1.24h0c-.49-.27-.11-.87-.45-1.2h0c-.28-.23-.25-.58-.34-.88h0c-.55-.21-.11-.86-.5-1.14h0c-.24-.21-.17-.58-.39-.8h0c-.26-.21-.18-.58-.4-.8h0a12.29,12.29,0,0,1-1.15-2.07h0c-.34-.14-.24-.55-.45-.77h0a7.48,7.48,0,0,1-.79-1.22h0a6.53,6.53,0,0,1-.82-1.2h0c-.16-.12-.33-.23-.33-.46-.46-.26-.59-.76-.87-1.15h0a.66.66,0,0,1-.36-.45,14.61,14.61,0,0,1-2.06-2.38h0a1,1,0,0,1-.4-.4h0a7.53,7.53,0,0,1-1.94-1.66h0a.6.6,0,0,1-.44-.33h0a4.35,4.35,0,0,1-1.18-.81h0a4.47,4.47,0,0,1-1.2-.77h0c-.21-.19-.63-.07-.72-.45h-.05a2.18,2.18,0,0,1-1.21-.73h0a4.77,4.77,0,0,1-1.22-.75h0c-.2-.21-.61-.1-.72-.45h0a2.29,2.29,0,0,1-1.19-.76h0a2.19,2.19,0,0,1-1.16-.8h0a.72.72,0,0,1-.44-.32h0a6,6,0,0,1-1.54-1.26h0a.58.58,0,0,1-.41-.38h0a.66.66,0,0,1-.4-.4h0a.46.46,0,0,1-.39-.41l-.08.07.08-.08a.42.42,0,0,1-.38-.41l-.08.06.07-.08c-.48-.21-.57-.74-.88-1.1h0c-.15-.13-.32-.24-.34-.46h0c-.35-.12-.24-.54-.47-.74h0a3.92,3.92,0,0,1-.71-1.28l-.08.07.09-.06c-.39-.16-.31-.53-.4-.83l-.08.07.09-.06c-.57-.21-.14-.86-.5-1.16h0c-.42-.31-.07-.88-.43-1.2h0c-.37-.34-.07-.88-.39-1.24h0c-.49-.45,0-1.15-.42-1.62h0c-.45-.49,0-1.17-.37-1.67h0c-.65-.72.05-1.69-.45-2.43h0c-.59-.89.08-2-.41-2.87h0c-.58-.9.05-2-.4-2.89h0c-.34-.38-.47-.75.05-1.09h0c.32-.53.7-.37,1.08-.08h0c.41.35.13.92.41,1.31l-.07.16.11.12c.48.78-.08,1.7.37,2.48h0C190.6,40.51,190.06,41.47,190.47,42.28Z" transform="translate(6532.892 158.086)" fill="#040404"/><path d="M170.23,76.71v.14l.11.09c.22.24.18.59.33.87h0c.49.26.09.87.48,1.17h0c.23.22.16.58.38.8h0c.26.2.17.58.41.79h0c.14.14.32.26.29.5l.09-.1-.1.09c.41.09.29.52.49.75h0A7.491,7.491,0,0,1,173.5,83h0a.92.92,0,0,1,.35.43h0a.51.51,0,0,1,.37.44c.66.69,1.34,1.36,2,2l.09-.07-.08.08a.47.47,0,0,1,.44.36h0a1.1,1.1,0,0,1,.43.34h0a4.079,4.079,0,0,0,.39.31l.11.07c.14.28.54.15.68.44h0l.43.3.08.13H179a.78.78,0,0,1,.56.33h.07c.19.24.56.14.74.39h0c.21.22.57.13.77.39h0c.21.21.56.13.77.36h.07c.19.25.55.14.76.35a.16.16,0,0,0,.26.09c.31.12.69.1.93.38h0c.23.2.59.12.82.35l.08.11h.13c.34.11.71.1,1,.38h0c.24.21.59.13.82.36l.09.11h.14a2.327,2.327,0,0,1,1,.38h0c.23.2.58.14.8.36h.08c.21.21.52.19.75.35a.18.18,0,0,0,.28.1,1.15,1.15,0,0,1,.52.28.24.24,0,0,0,.32.12c.28.15.66.08.86.4h0c.25.16.62.08.78.4h0c.25.16.63.07.79.4h0a1.79,1.79,0,0,1,.44.27.2.2,0,0,0,.29.13c.22,0,.35.16.51.29l.11.05c.18.23.49.2.69.39h.07c.19.25.57.14.74.41h0c.22.21.61.1.76.44h0a1.13,1.13,0,0,1,.43.29h.09c.17.26.56.15.72.42h0c.21.2.63.08.72.47h0a.68.68,0,0,1,.46.31h0l.4.31.12.07c.13.28.54.15.67.45h0a1.7,1.7,0,0,1,.42.33h.06c.34.33.85.44,1.11.86h0a.61.61,0,0,1,.43.38h0a1.45,1.45,0,0,1,.41.37h0a4.27,4.27,0,0,1,.38.36h.05l.36.35h.05a4.584,4.584,0,0,0,.36.36h.05c.11.13.23.25.35.37h0a4.481,4.481,0,0,1,.36.4h0a.84.84,0,0,1,.37.44h0c.21.09.37.2.35.46l.1-.11-.1.11c.39.07.27.51.5.71h0c.15.13.33.25.31.49l.07-.08-.08.07c.4.11.3.52.45.79h0c.54.47.18.86-.2,1.07-.74.41-1-.26-1.31-.73h0c-.17-.11-.34-.23-.32-.47l-.12.06.12-.07c-.39-.07-.26-.51-.5-.69h0a1.4,1.4,0,0,1-.35-.42h0a.539.539,0,0,1-.09.07l-.08.08L204,104c-.66-.68-1.34-1.34-2-2h0a.52.52,0,0,1-.43-.35h0a1,1,0,0,1-.43-.36h0a9.89,9.89,0,0,1-1.6-1.21h0a3.71,3.71,0,0,1-1.18-.81h0a3.82,3.82,0,0,1-1.2-.78h0c-.22-.19-.63-.07-.72-.45h-.06a2.58,2.58,0,0,1-1.23-.7h0c-.23-.19-.61-.09-.76-.42h0c-.24-.15-.63,0-.75-.41h0c-1.34-.66-2.69-1.28-4-2h-.05c-.27-.1-.62,0-.79-.35h0a6.66,6.66,0,0,1-2-.81h0a5.93,5.93,0,0,1-2-.79h0a5.62,5.62,0,0,1-2-.81h-.06c-.27-.1-.61,0-.8-.34h0c-.25-.17-.61-.1-.8-.37h0c-.53-.26-1.17-.32-1.59-.81h0c-.22-.2-.61-.1-.75-.42h0a3.42,3.42,0,0,1-1.21-.77h0a2.91,2.91,0,0,1-1.15-.84h0a.72.72,0,0,1-.43-.35h0a8.67,8.67,0,0,1-2.8-2.82h0a.49.49,0,0,1-.35-.45l-.11.07.11-.08c-.47-.25-.61-.74-.86-1.16h0a3.21,3.21,0,0,1-.79-1.23h0c-.35-.15-.25-.55-.45-.78h0c-.29-.19-.22-.57-.42-.81h0c-.29-.21-.24-.58-.38-.85h0c-.48-.27-.1-.87-.46-1.19h0c-.38-.32-.06-.88-.4-1.22h0c-.38-.35-.11-.89-.36-1.27h0c-.63-.57,0-1.42-.45-2h0a3.32,3.32,0,0,1,0-2.76h0c.21-.34.45-.3.7,0h0a.76.76,0,0,1,.37.47h0c.67.72,0,1.69.46,2.44h0c.51.46,0,1.16.41,1.65h0C170.25,75.71,170,76.29,170.23,76.71ZM165,37.49v.11l.08.08c.37.35.08.89.37,1.27h0c.45.32.14.88.41,1.25h0c.47.28.11.87.44,1.21h0c.44.27.05.87.45,1.16h0c.21.23.15.59.36.82h0c.27.22.2.58.4.83h0c.29.2.21.57.41.81h0c.28.19.19.57.42.78h0A5.5,5.5,0,0,1,169,47h0c.32.14.21.56.47.73v.05a1.87,1.87,0,0,1,.33.45h0c.4.29.52.8.86,1.14h0a4.468,4.468,0,0,1,.35.41h0a.91.91,0,0,1,.38.42h0a.68.68,0,0,1,.4.41h0a.67.67,0,0,1,.41.41h0a.76.76,0,0,1,.41.4h0a1.51,1.51,0,0,1,.42.38h0l.39.35h.06c.33.34.83.46,1.12.85h0a1.27,1.27,0,0,1,.43.33h0c.18.24.6.12.7.48h0a.85.85,0,0,1,.45.31h.05c.19.23.6.11.72.45h0a1.23,1.23,0,0,1,.44.3h.09c.17.27.55.15.72.42h0c.21.21.61.11.75.44h0a1.57,1.57,0,0,1,.44.28h.1c.18.23.51.2.7.4h0c.2.22.6.12.75.43h0a2.47,2.47,0,0,1,.42.3l.11.06c.15.27.54.15.69.42h0a4.79,4.79,0,0,1,1.17.83h0a1.15,1.15,0,0,1,.43.35h0l.39.33h.06A6.8,6.8,0,0,1,186,60.86l.1-.08-.09.09a.36.36,0,0,1,.39.39l.09-.09-.08.1c.58.35.87,1,1.32,1.45v.06a4.171,4.171,0,0,0,.34.38h0a2,2,0,0,1,.36.41h0a.59.59,0,0,1,.35.46l.07-.08-.07.07c.35.1.22.53.49.69h0a2.361,2.361,0,0,1,.33.45h0c.3.15.19.56.45.73h0c.11.15.29.26.3.47h0c.36.15.27.55.44.8h0c.32.19.26.56.39.84h0c.5.27.12.87.46,1.21h0c.5.44,0,1.15.43,1.61h0c.24.4.43.79-.11,1.11h0c-.34.49-.68.47-1,0h0c-.55-.22-.12-.86-.49-1.15h0c-.4-.33-.08-.89-.41-1.23h0c-.34-.85-.8-1.65-1.14-2.5-.39-.1-.28-.52-.47-.75h0a7.46,7.46,0,0,1-.83-1.19h0a1,1,0,0,1-.34-.44h0c-1.41-1.55-2.93-3-4.42-4.47h0a.7.7,0,0,1-.44-.33h0a4.56,4.56,0,0,1-1.19-.81h0a9.62,9.62,0,0,1-2-1.21h0a11,11,0,0,1-2-1.19h0c-.22-.19-.63-.07-.73-.45h-.05a2.09,2.09,0,0,1-1.19-.75h0a2,2,0,0,1-1.15-.81h0a.65.65,0,0,1-.44-.32h0A6,6,0,0,1,172,53h0a.57.57,0,0,1-.41-.37h0a.71.71,0,0,1-.41-.39h0a.59.59,0,0,1-.41-.4h0a.56.56,0,0,1-.39-.41h0A.5.5,0,0,1,170,51a5.59,5.59,0,0,1-1.25-1.57h0a6.07,6.07,0,0,1-.82-1.2h0a4.53,4.53,0,0,1-.77-1.24h0c-.32-.16-.23-.56-.44-.79h0c-.27-.19-.19-.57-.41-.79h0c-.25-.21-.18-.58-.4-.8h0c-.26-.22-.2-.58-.39-.83h0c-.29-.21-.25-.57-.37-.86h0c-.51-.26-.11-.87-.47-1.19h0c-.41-.31-.06-.88-.43-1.2h0c-.36-.34-.06-.88-.38-1.23h0c-.48-.45,0-1.16-.41-1.63h0c-.51-.61,0-1.43-.4-2.05h0A6.17,6.17,0,0,1,163,32h0c.39-.27.78-.41,1.11.09h0c.77,1.12-.06,2.46.48,3.61h0C165,36.2,164.66,36.92,165,37.49Z" transform="translate(6532.892 158.086)" fill="#050404"/></g></g><g transform="translate(387.016 281.897)"><g transform="translate(-122.616 -21.074)"><g transform="translate(410.866 -339.02)"><path d="M252.8,205.4a8.385,8.385,0,0,0-12.9-2.8c-2.1,1.7-1.8,5.3,0,7.1a4.653,4.653,0,0,0,2.9,1.4c-.5.6-1,1.1-1.2,1.3-4.4,4.7,2.7,11.8,7.1,7.1C252.2,215.7,255.6,210.6,252.8,205.4Z" transform="translate(810.831 358.458)" fill="#ff9443"/><path d="M253.8,216.6c0-.1.2-.2.5-.3s.8-.2,1.4-.4a9.2,9.2,0,0,0,4.1-2.6,8.651,8.651,0,0,0,2.6-6.2,7.026,7.026,0,0,0-1.2-3.6,9.415,9.415,0,0,0-3.2-2.7,10.127,10.127,0,0,0-4.1-.9,6.214,6.214,0,0,0-3.6,1.2,8.573,8.573,0,0,0-3.2,5.9,9.679,9.679,0,0,0,.6,4.8,8.094,8.094,0,0,0,.6,1.3c.1.3.2.5.1.6s-.3,0-.6-.2a10.021,10.021,0,0,1-1.2-1.1,9.473,9.473,0,0,1-1.8-5.6,10.3,10.3,0,0,1,.8-4.1,9.55,9.55,0,0,1,8.1-6.1,13.3,13.3,0,0,1,5.8,1.1,11.906,11.906,0,0,1,4.5,3.8,9.719,9.719,0,0,1,1.6,5.4,10.7,10.7,0,0,1-1.3,4.8,12.358,12.358,0,0,1-2.7,3.2,9.084,9.084,0,0,1-5.5,2.1,6.267,6.267,0,0,1-1.6-.2C253.9,216.8,253.8,216.7,253.8,216.6Z" transform="translate(809.465 360.458)" stroke="#000" stroke-miterlimit="10" stroke-width="1"/></g><path d="M622.4,654.9c.8-.3,5.6,12.2,9.2,28.2s4.5,29.3,3.7,29.4c-.9.1-3.3-12.9-6.9-28.7C624.9,667.9,621.5,655.2,622.4,654.9Z" transform="translate(876.046 -463.001)" stroke="#000" stroke-miterlimit="10" stroke-width="1"/></g><g transform="translate(-5427.625 -840.012)"><path d="M611,188.6a25.461,25.461,0,0,1-7-8,4.974,4.974,0,1,0-8.6,5,34.764,34.764,0,0,0,8.6,10.1c2.1,1.6,5,2.1,7.1,0C612.7,194,613.1,190.3,611,188.6Z" transform="translate(6193.592 892.458)" fill="#ff9443"/><ellipse cx="6.4" cy="1.6" rx="6.4" ry="1.6" transform="matrix(-0.589, 0.808, -0.808, -0.589, 6799.985, 1067.628)" stroke="#000" stroke-miterlimit="10" stroke-width="1"/><path d="M627,195.7c-.2.4-2.1,0-5-1.4a37.8,37.8,0,0,1-4.7-2.9,35.367,35.367,0,0,1-5-4.6,38.161,38.161,0,0,1-4-5.5,30.631,30.631,0,0,1-2.3-5c-1-3-1.1-5-.7-5.1.9-.3,3.5,6.8,9.5,13.5C620.7,191.5,627.4,194.9,627,195.7ZM616.9,201c-.1.4-1.8.4-4.4-.3a24.808,24.808,0,0,1-4.3-1.8,26.9,26.9,0,0,1-4.7-3.3,26.064,26.064,0,0,1-4-4.2,23.272,23.272,0,0,1-2.5-4c-1.2-2.4-1.4-4.1-1-4.2.9-.4,3.9,5.1,9.6,9.9C611.3,198,617.2,200,616.9,201Z" transform="translate(6193.592 892.458)" stroke="#000" stroke-miterlimit="10" stroke-width="1"/></g></g></g></svg>